<?xml version="1.0" encoding="UTF-8"?>
<!DOCTYPE svg PUBLIC "-//W3C//DTD SVG 1.1//EN" "http://www.w3.org/Graphics/SVG/1.1/DTD/svg11.dtd">
<!-- Creator: CorelDRAW 2021 (64-Bit) -->
<svg xmlns="http://www.w3.org/2000/svg" xml:space="preserve" width="3.45689in" height="0.485008in" version="1.1" style="shape-rendering:geometricPrecision; text-rendering:geometricPrecision; image-rendering:optimizeQuality; fill-rule:evenodd; clip-rule:evenodd"
viewBox="0 0 1423.87 199.77"
 xmlns:xlink="http://www.w3.org/1999/xlink"
 xmlns:xodm="http://www.corel.com/coreldraw/odm/2003">
 <defs>
  <style type="text/css">
   <![CDATA[
    .fil2 {fill:#2F538D;fill-rule:nonzero}
    .fil3 {fill:#BF9405;fill-rule:nonzero}
    .fil1 {fill:url(#id0)}
    .fil0 {fill:url(#id1);fill-rule:nonzero}
   ]]>
  </style>
  <linearGradient id="id0" gradientUnits="userSpaceOnUse" x1="56.58" y1="189" x2="59.86" y2="64.08">
   <stop offset="0" style="stop-opacity:1; stop-color:#283350"/>
   <stop offset="1" style="stop-opacity:1; stop-color:#087EAE"/>
  </linearGradient>
  <linearGradient id="id1" gradientUnits="userSpaceOnUse" x1="109.74" y1="193" x2="74.81" y2="-57.2">
   <stop offset="0" style="stop-opacity:1; stop-color:#FFF282"/>
   <stop offset="0.180392" style="stop-opacity:1; stop-color:#BC9000"/>
   <stop offset="0.568627" style="stop-opacity:1; stop-color:#C49C00"/>
   <stop offset="0.74902" style="stop-opacity:1; stop-color:#FFF6AA"/>
   <stop offset="1" style="stop-opacity:1; stop-color:#FFF6AA"/>
  </linearGradient>
 </defs>
 <g id="Layer_x0020_1">
  <metadata id="CorelCorpID_0Corel-Layer"/>
  <g id="_2441184564368">
   <g>
    <path class="fil0" d="M83.95 68.35c-19.95,-30.84 -14.53,-51.23 -1.18,-68.35 -6.11,27.14 44.15,61.28 58.11,85.45 28.09,48.61 -5.55,103.37 -46.75,109.82 21.55,-23.69 27.12,-49.16 19.2,-76.13 -6.97,-23.74 -17.18,-31.91 -29.39,-50.78z"/>
    <path class="fil1" d="M59.49 35.85c1.3,13.45 5.75,34.6 18.27,49.29 14.36,16.85 31.56,41 11.16,70.7 5.03,-28.72 -16.72,-44.27 -27.86,-67.7 -16.86,4.98 -29.15,20.35 -29.15,38.53 0,22.22 18.34,40.24 40.96,40.24 10.02,0 19.2,-3.54 26.32,-9.41 -1.9,11.08 -7.01,21.36 -14.9,31.13l0 0.04 -0.38 0.42 0 0 -1.07 1.17 -8.42 9.26 -8.11 0.24 -4.02 -9.6c-4.08,-0.65 -8.03,-1.67 -11.82,-3.03l-7.61 6.15 -12.37 -6.7 1.28 -9.83c-3.51,-2.79 -6.73,-5.92 -9.59,-9.36l-9.06 1.32 -7.23 -12.06 5.7 -7.28c-1.71,-4.46 -2.94,-9.16 -3.61,-14.03l-7.98 -3.32 0 -14.07 8.52 -3.28c0.82,-4.25 2.06,-8.36 3.68,-12.27l-5.4 -6.94 6.92 -12.24 9.57 1.42c2.87,-3.26 6.07,-6.24 9.54,-8.88l-1.25 -9.38 12.16 -7.08 8.03 6.45c1.04,-0.35 2.09,-0.67 3.15,-0.96 -0.46,-8.39 0.78,-17.88 4.56,-28.94zm-5.75 64.09c2.06,21.29 31.43,34.49 20.71,60.07 2.61,-13.2 -26.91,-32.38 -20.71,-60.07z"/>
   </g>
   <g>
    <g>
     <path class="fil2" d="M186.9 139.64l0 12.93c0,0.58 0.14,1.02 0.41,1.33 0.27,0.32 0.74,0.56 1.4,0.73l0 0.94 -12.18 0 0 -0.94c0.68,-0.19 1.15,-0.44 1.41,-0.74 0.26,-0.3 0.4,-0.74 0.4,-1.32l0 -33.04c0,-0.6 -0.14,-1.04 -0.4,-1.35 -0.26,-0.3 -0.73,-0.56 -1.41,-0.74l0 -0.94 24.44 0c2.98,0 5.34,0.18 7.08,0.52 1.75,0.34 3.27,0.95 4.57,1.8 1.5,1 2.63,2.34 3.38,4.04 0.7,1.64 1.05,3.4 1.05,5.27 0,6.38 -3.54,10.11 -10.62,11.21l7.58 10.74c1.33,1.88 2.3,3.09 2.93,3.64 0.62,0.54 1.38,0.84 2.27,0.9l0 0.94 -14.12 0 0 -0.94c0.97,-0.16 1.45,-0.5 1.45,-1.02 0,-0.34 -0.45,-1.17 -1.35,-2.49l-7.95 -11.48 -10.36 0zm0 -6.44l13.17 0c1.94,0 3.32,-0.06 4.12,-0.18 0.8,-0.11 1.54,-0.35 2.21,-0.71 1.45,-0.78 2.18,-2.2 2.18,-4.24 0,-2.04 -0.72,-3.45 -2.18,-4.24 -0.68,-0.38 -1.42,-0.62 -2.19,-0.73 -0.77,-0.11 -2.16,-0.16 -4.14,-0.16l-13.17 0 0 10.25zm46.03 8.72l0 7.85 20.26 0c0.59,0 1.04,-0.13 1.36,-0.39 0.31,-0.26 0.57,-0.73 0.75,-1.42l0.82 0 0 9.43 -0.82 0c-0.18,-0.66 -0.42,-1.13 -0.74,-1.4 -0.32,-0.27 -0.78,-0.41 -1.37,-0.41l-29.75 0 0 -0.82c0.66,-0.18 1.13,-0.42 1.41,-0.74 0.27,-0.32 0.41,-0.78 0.41,-1.38l0 -26.16c0,-0.6 -0.14,-1.04 -0.4,-1.35 -0.26,-0.3 -0.73,-0.57 -1.42,-0.77l0 -0.82 28.9 0c0.6,0 1.06,-0.14 1.38,-0.4 0.32,-0.26 0.58,-0.73 0.76,-1.42l0.76 0 0 9.43 -0.76 0c-0.19,-0.69 -0.44,-1.16 -0.75,-1.43 -0.32,-0.26 -0.78,-0.39 -1.38,-0.39l-19.41 0 0 7.03 12.03 0c0.59,0 1.04,-0.14 1.36,-0.4 0.31,-0.26 0.58,-0.73 0.78,-1.41l0.76 0 0 9.19 -0.76 0c-0.19,-0.67 -0.44,-1.14 -0.75,-1.42 -0.32,-0.26 -0.78,-0.4 -1.38,-0.4l-12.03 0zm37.57 7.85l17.94 0c0.61,0 1.07,-0.13 1.38,-0.39 0.3,-0.26 0.57,-0.73 0.77,-1.42l0.76 0 0 9.43 -0.76 0c-0.2,-0.68 -0.44,-1.15 -0.76,-1.41 -0.31,-0.26 -0.77,-0.4 -1.38,-0.4l-27.42 0 0 -0.82c0.66,-0.18 1.13,-0.42 1.41,-0.74 0.27,-0.32 0.41,-0.78 0.41,-1.38l0 -26.16c0,-0.6 -0.14,-1.04 -0.4,-1.35 -0.26,-0.3 -0.73,-0.57 -1.42,-0.77l0 -0.82 11.3 0 0 0.82c-0.68,0.19 -1.15,0.44 -1.42,0.76 -0.26,0.31 -0.4,0.76 -0.4,1.36l0 23.3zm33.62 -23.31l0 26.15c0,0.59 0.14,1.03 0.4,1.36 0.26,0.31 0.73,0.58 1.42,0.78l0 0.82 -11.3 0 0 -0.82c0.66,-0.18 1.13,-0.42 1.41,-0.74 0.27,-0.32 0.41,-0.78 0.41,-1.38l0 -26.16c0,-0.6 -0.14,-1.04 -0.4,-1.35 -0.26,-0.3 -0.73,-0.57 -1.42,-0.77l0 -0.82 11.3 0 0 0.82c-0.68,0.19 -1.15,0.44 -1.42,0.75 -0.26,0.32 -0.4,0.77 -0.4,1.36zm31.73 21.08l-14.75 0 -1.67 3.48c-0.4,0.84 -0.6,1.5 -0.6,1.97 0,0.92 0.61,1.5 1.83,1.75l0 0.82 -11.77 0 0 -0.82c0.72,-0.12 1.26,-0.33 1.61,-0.65 0.36,-0.33 0.77,-0.97 1.25,-1.91l11.69 -23.66c0.44,-0.89 0.65,-1.67 0.65,-2.34 0,-0.78 -0.53,-1.39 -1.6,-1.83l0 -0.82 12.44 0 0 0.82c-1.04,0.42 -1.57,1.06 -1.57,1.94 0,0.62 0.24,1.4 0.71,2.31l12.13 22.93c0.66,1.25 1.19,2.06 1.57,2.42 0.38,0.37 0.97,0.62 1.75,0.78l0 0.82 -13.06 0 0 -0.82c1.25,-0.2 1.87,-0.79 1.87,-1.74 0,-0.59 -0.24,-1.32 -0.72,-2.2l-1.78 -3.27zm-2.32 -4.51l-5.24 -10.29 -4.99 10.29 10.23 0zm27.47 -8.57l0 18.14c0,0.59 0.14,1.04 0.41,1.37 0.27,0.32 0.74,0.58 1.4,0.77l0 0.82 -10.6 0 0 -0.82c0.66,-0.18 1.13,-0.42 1.41,-0.74 0.27,-0.32 0.41,-0.78 0.41,-1.38l0 -26.16c0,-0.6 -0.14,-1.04 -0.4,-1.35 -0.26,-0.3 -0.73,-0.57 -1.42,-0.77l0 -0.82 12.29 0 0 0.82c-0.84,0.21 -1.26,0.58 -1.26,1.11 0,0.46 0.3,1 0.92,1.6l17.22 17.02 0 -17.62c0,-0.6 -0.14,-1.04 -0.4,-1.36 -0.26,-0.32 -0.73,-0.58 -1.41,-0.76l0 -0.82 10.6 0 0 0.82c-0.68,0.19 -1.15,0.44 -1.42,0.75 -0.26,0.32 -0.4,0.77 -0.4,1.36l0 26.15c0,0.59 0.14,1.03 0.4,1.36 0.26,0.31 0.73,0.58 1.42,0.78l0 0.82 -11.46 0 0 -0.82c0.84,-0.17 1.26,-0.52 1.26,-1.04 0,-0.27 -0.12,-0.55 -0.34,-0.83 -0.24,-0.28 -0.75,-0.84 -1.57,-1.67l-17.05 -16.74zm52.45 -5.13l0 23.28c0,0.59 0.14,1.03 0.4,1.36 0.26,0.31 0.73,0.58 1.42,0.78l0 0.82 -11.3 0 0 -0.82c0.66,-0.18 1.13,-0.42 1.4,-0.74 0.27,-0.32 0.41,-0.78 0.41,-1.38l0 -23.29 -9.45 0c-0.61,0 -1.07,0.14 -1.38,0.4 -0.32,0.27 -0.57,0.74 -0.76,1.42l-0.76 0 0 -9.43 0.76 0c0.18,0.66 0.42,1.13 0.73,1.41 0.31,0.27 0.78,0.41 1.38,0.41l26.59 0c0.6,0 1.07,-0.14 1.39,-0.4 0.32,-0.26 0.57,-0.73 0.76,-1.42l0.76 0 0 9.43 -0.76 0c-0.19,-0.67 -0.44,-1.14 -0.76,-1.42 -0.31,-0.26 -0.77,-0.4 -1.39,-0.4l-9.45 0zm32.78 23.21l0 -33.04c0,-0.58 -0.14,-1.02 -0.4,-1.32 -0.26,-0.3 -0.73,-0.56 -1.41,-0.74l0 -0.94 12.18 0 0 0.94c-0.68,0.18 -1.15,0.41 -1.41,0.73 -0.26,0.31 -0.4,0.75 -0.4,1.33l0 33.04c0,0.6 0.14,1.04 0.41,1.36 0.27,0.32 0.74,0.56 1.4,0.73l0 0.94 -12.18 0 0 -0.94c0.68,-0.19 1.15,-0.44 1.41,-0.74 0.26,-0.3 0.4,-0.75 0.4,-1.35zm25.45 -18.07l0 18.14c0,0.59 0.14,1.04 0.41,1.37 0.27,0.32 0.74,0.58 1.4,0.77l0 0.82 -10.6 0 0 -0.82c0.66,-0.18 1.13,-0.42 1.41,-0.74 0.27,-0.32 0.41,-0.78 0.41,-1.38l0 -26.16c0,-0.6 -0.14,-1.04 -0.4,-1.35 -0.26,-0.3 -0.73,-0.57 -1.42,-0.77l0 -0.82 12.29 0 0 0.82c-0.84,0.21 -1.26,0.58 -1.26,1.11 0,0.46 0.3,1 0.92,1.6l17.22 17.02 0 -17.62c0,-0.6 -0.14,-1.04 -0.4,-1.36 -0.26,-0.32 -0.73,-0.58 -1.41,-0.76l0 -0.82 10.6 0 0 0.82c-0.68,0.19 -1.15,0.44 -1.42,0.75 -0.26,0.32 -0.4,0.77 -0.4,1.36l0 26.15c0,0.59 0.14,1.03 0.4,1.36 0.26,0.31 0.73,0.58 1.42,0.78l0 0.82 -11.46 0 0 -0.82c0.84,-0.17 1.26,-0.52 1.26,-1.04 0,-0.27 -0.12,-0.55 -0.34,-0.83 -0.24,-0.28 -0.75,-0.84 -1.57,-1.67l-17.05 -16.74zm36.58 18.16l0 -26.16c0,-0.6 -0.14,-1.04 -0.4,-1.35 -0.26,-0.3 -0.73,-0.57 -1.42,-0.77l0 -0.82 18.78 0c3.91,0 6.99,0.49 9.24,1.45 3.16,1.38 5.44,3.65 6.83,6.81 0.97,2.21 1.45,4.79 1.45,7.75 0,5.47 -1.63,9.62 -4.89,12.44 -1.46,1.26 -3.19,2.17 -5.19,2.73 -1.99,0.56 -4.47,0.84 -7.45,0.84l-18.78 0 0 -0.82c0.66,-0.18 1.13,-0.42 1.41,-0.74 0.27,-0.32 0.41,-0.78 0.41,-1.38zm7.67 -2.86l8.19 0c3.76,0 6.48,-0.86 8.18,-2.58 1.78,-1.8 2.66,-4.34 2.66,-7.64 0,-3.3 -0.89,-5.85 -2.66,-7.64 -0.88,-0.9 -1.96,-1.55 -3.26,-1.96 -1.3,-0.41 -2.94,-0.61 -4.92,-0.61l-8.19 0 0 20.44zm65.27 -23.3l0 16.95c0,3.87 -0.76,6.72 -2.28,8.53 -2.46,2.88 -7.09,4.31 -13.89,4.31 -4.56,0 -8.24,-0.69 -11.04,-2.09 -2.02,-1 -3.4,-2.45 -4.15,-4.31 -0.68,-1.72 -1.02,-3.86 -1.02,-6.44l0 -16.95c0,-0.6 -0.14,-1.04 -0.4,-1.35 -0.26,-0.3 -0.73,-0.57 -1.42,-0.77l0 -0.82 11.3 0 0 0.82c-0.69,0.19 -1.16,0.44 -1.42,0.76 -0.26,0.31 -0.39,0.76 -0.39,1.36l0 15.39c0,1.8 0.16,3.16 0.47,4.12 0.31,0.95 0.86,1.73 1.64,2.34 1.56,1.24 3.82,1.86 6.76,1.86 2.95,0 5.2,-0.61 6.76,-1.86 0.75,-0.61 1.29,-1.39 1.59,-2.34 0.3,-0.96 0.46,-2.32 0.46,-4.12l0 -15.39c0,-0.6 -0.13,-1.04 -0.38,-1.35 -0.25,-0.3 -0.73,-0.57 -1.43,-0.77l0 -0.82 10.66 0 0 0.82c-0.68,0.2 -1.15,0.44 -1.42,0.76 -0.26,0.31 -0.4,0.76 -0.4,1.36zm37.68 -0.05l-3.86 7.47 -0.68 -0.37c0,-0.63 -0.21,-1.12 -0.61,-1.48 -1.08,-0.98 -2.69,-1.78 -4.81,-2.4 -2.12,-0.63 -4.26,-0.95 -6.44,-0.95 -1.84,0 -3.49,0.25 -4.92,0.77 -2.06,0.74 -3.09,1.82 -3.09,3.24 0,0.93 0.5,1.59 1.48,1.98 1,0.39 2.91,0.7 5.76,0.94l4.52 0.34c3.94,0.3 6.95,1.06 9.01,2.28 1.14,0.69 2.09,1.61 2.83,2.75 0.94,1.42 1.4,3.03 1.4,4.83 0,3.26 -1.46,5.84 -4.4,7.73 -2.81,1.81 -6.6,2.71 -11.39,2.71 -4.82,0 -9.49,-1.02 -13.99,-3.05 -0.3,-0.14 -0.57,-0.21 -0.77,-0.21 -0.38,0 -0.73,0.24 -1.06,0.69l-0.71 -0.29 3.29 -7.83 0.71 0.28c0,0.12 0,0.19 0,0.23 0,0.5 0.19,0.91 0.58,1.26 0.96,0.84 2.61,1.56 4.95,2.19 2.34,0.61 4.67,0.93 6.95,0.93 2.02,0 3.84,-0.26 5.44,-0.8 1.98,-0.65 2.98,-1.7 2.98,-3.15 0,-1.17 -0.68,-1.98 -2.06,-2.44 -0.92,-0.3 -2.57,-0.57 -4.96,-0.77l-4.49 -0.37c-2.42,-0.19 -4.27,-0.44 -5.55,-0.75 -1.28,-0.3 -2.39,-0.75 -3.35,-1.34 -1.22,-0.77 -2.18,-1.8 -2.86,-3.12 -0.69,-1.32 -1.03,-2.76 -1.03,-4.32 0,-3.51 1.51,-6.2 4.53,-8.05 2.74,-1.68 6.14,-2.52 10.19,-2.52 2.2,0 4.25,0.24 6.14,0.73 1.9,0.49 4.17,1.35 6.8,2.57 0.78,0.36 1.33,0.55 1.63,0.55 0.31,0 0.7,-0.21 1.18,-0.63l0.68 0.38zm23.45 2.91l0 23.28c0,0.59 0.14,1.03 0.4,1.36 0.26,0.31 0.73,0.58 1.42,0.78l0 0.82 -11.3 0 0 -0.82c0.66,-0.18 1.13,-0.42 1.4,-0.74 0.27,-0.32 0.41,-0.78 0.41,-1.38l0 -23.29 -9.45 0c-0.61,0 -1.07,0.14 -1.38,0.4 -0.32,0.27 -0.57,0.74 -0.76,1.42l-0.76 0 0 -9.43 0.76 0c0.18,0.66 0.42,1.13 0.73,1.41 0.31,0.27 0.78,0.41 1.38,0.41l26.59 0c0.6,0 1.07,-0.14 1.39,-0.4 0.32,-0.26 0.57,-0.73 0.76,-1.42l0.76 0 0 9.43 -0.76 0c-0.19,-0.67 -0.44,-1.14 -0.76,-1.42 -0.31,-0.26 -0.77,-0.4 -1.39,-0.4l-9.45 0zm25.11 13.06l0 10.22c0,0.59 0.14,1.03 0.4,1.36 0.26,0.31 0.73,0.58 1.42,0.78l0 0.82 -11.3 0 0 -0.82c0.66,-0.18 1.13,-0.42 1.41,-0.74 0.27,-0.32 0.41,-0.78 0.41,-1.38l0 -26.16c0,-0.6 -0.14,-1.04 -0.4,-1.35 -0.26,-0.3 -0.73,-0.57 -1.42,-0.77l0 -0.82 21.01 0c2.72,0 4.8,0.14 6.24,0.41 1.44,0.28 2.71,0.78 3.84,1.5 2.31,1.5 3.46,3.96 3.46,7.37 0,2.59 -0.71,4.61 -2.14,6.07 -1.41,1.45 -3.72,2.51 -6.89,3.15l6.1 8.45c1.11,1.56 2,2.63 2.66,3.18 0.65,0.57 1.41,0.92 2.25,1.07l0 0.82 -13.5 0 0 -0.82c0.99,-0.26 1.49,-0.69 1.49,-1.29 0,-0.41 -0.3,-1.05 -0.92,-1.9l-6.43 -9.16 -7.7 0zm0 -5.8l11.59 0c1.76,0 3.06,-0.19 3.9,-0.58 1.18,-0.51 1.78,-1.53 1.78,-3.05 0,-1.36 -0.42,-2.29 -1.25,-2.83 -0.83,-0.54 -2.31,-0.8 -4.43,-0.8l-11.59 0 0 7.26zm40.32 -10.13l0 26.15c0,0.59 0.14,1.03 0.4,1.36 0.26,0.31 0.73,0.58 1.42,0.78l0 0.82 -11.3 0 0 -0.82c0.66,-0.18 1.13,-0.42 1.41,-0.74 0.27,-0.32 0.41,-0.78 0.41,-1.38l0 -26.16c0,-0.6 -0.14,-1.04 -0.4,-1.35 -0.26,-0.3 -0.73,-0.57 -1.42,-0.77l0 -0.82 11.3 0 0 0.82c-0.68,0.19 -1.15,0.44 -1.42,0.75 -0.26,0.32 -0.4,0.77 -0.4,1.36zm31.73 21.08l-14.75 0 -1.67 3.48c-0.4,0.84 -0.6,1.5 -0.6,1.97 0,0.92 0.61,1.5 1.83,1.75l0 0.82 -11.77 0 0 -0.82c0.72,-0.12 1.26,-0.33 1.61,-0.65 0.36,-0.33 0.77,-0.97 1.25,-1.91l11.69 -23.66c0.44,-0.89 0.65,-1.67 0.65,-2.34 0,-0.78 -0.53,-1.39 -1.6,-1.83l0 -0.82 12.44 0 0 0.82c-1.04,0.42 -1.57,1.06 -1.57,1.94 0,0.62 0.24,1.4 0.71,2.31l12.13 22.93c0.66,1.25 1.19,2.06 1.57,2.42 0.38,0.37 0.97,0.62 1.75,0.78l0 0.82 -13.06 0 0 -0.82c1.25,-0.2 1.87,-0.79 1.87,-1.74 0,-0.59 -0.24,-1.32 -0.72,-2.2l-1.78 -3.27zm-2.32 -4.51l-5.24 -10.29 -4.99 10.29 10.23 0zm28.18 6.73l17.94 0c0.61,0 1.07,-0.13 1.38,-0.39 0.3,-0.26 0.57,-0.73 0.77,-1.42l0.76 0 0 9.43 -0.76 0c-0.2,-0.68 -0.44,-1.15 -0.76,-1.41 -0.31,-0.26 -0.77,-0.4 -1.38,-0.4l-27.42 0 0 -0.82c0.66,-0.18 1.13,-0.42 1.41,-0.74 0.27,-0.32 0.41,-0.78 0.41,-1.38l0 -26.16c0,-0.6 -0.14,-1.04 -0.4,-1.35 -0.26,-0.3 -0.73,-0.57 -1.42,-0.77l0 -0.82 11.3 0 0 0.82c-0.68,0.19 -1.15,0.44 -1.42,0.76 -0.26,0.31 -0.4,0.76 -0.4,1.36l0 23.3zm75.79 -29.98l-4.66 9.18 -0.8 -0.46c0.02,-0.18 0.03,-0.34 0.03,-0.46 0,-0.64 -0.56,-1.35 -1.66,-2.09 -3.4,-2.36 -7.38,-3.54 -11.96,-3.54 -2.02,0 -3.81,0.24 -5.36,0.74 -1.12,0.39 -2.03,0.96 -2.73,1.73 -0.69,0.76 -1.04,1.59 -1.04,2.49 0,1.47 0.89,2.48 2.65,3.01 0.92,0.27 2.88,0.56 5.89,0.87l4.49 0.46c2.66,0.28 4.83,0.67 6.48,1.17 1.65,0.5 3.1,1.19 4.38,2.09 1.3,0.94 2.32,2.17 3.07,3.69 0.75,1.53 1.13,3.16 1.13,4.9 0,2.74 -0.89,5.19 -2.65,7.33 -1.6,1.94 -4.09,3.39 -7.47,4.31 -2.52,0.71 -5.21,1.06 -8.09,1.06 -5.16,0 -10.26,-1.24 -15.29,-3.71 -1.06,-0.5 -1.7,-0.74 -1.91,-0.74 -0.24,0 -0.63,0.21 -1.17,0.62l-0.83 -0.42 4.24 -9.57 0.83 0.4c0,0.17 0,0.29 0,0.37 0,0.86 0.41,1.65 1.22,2.37 1.24,1.1 3.16,2.06 5.75,2.86 2.6,0.8 5.06,1.2 7.38,1.2 2.54,0 4.7,-0.43 6.49,-1.29 1,-0.48 1.79,-1.11 2.37,-1.9 0.6,-0.79 0.89,-1.62 0.89,-2.48 0,-1.3 -0.69,-2.22 -2.09,-2.78 -0.98,-0.38 -2.94,-0.73 -5.89,-1.05l-4.41 -0.46c-2.95,-0.31 -5.05,-0.6 -6.27,-0.88 -1.22,-0.27 -2.44,-0.72 -3.66,-1.34 -1.74,-0.86 -3.1,-2.15 -4.09,-3.86 -0.9,-1.55 -1.35,-3.33 -1.35,-5.33 0,-3.31 1.13,-6.04 3.41,-8.2 2.98,-2.85 7.45,-4.27 13.41,-4.27 2.49,0 4.82,0.25 6.97,0.76 2.16,0.51 4.84,1.43 8.07,2.79 1.1,0.44 1.78,0.65 2.03,0.65 0.4,0 0.86,-0.21 1.39,-0.65l0.8 0.43zm23.18 3.05c5.09,0 9.32,1.3 12.72,3.89 4.06,3.13 6.09,7.49 6.09,13.08 0,5.25 -2.03,9.44 -6.09,12.57 -3.36,2.6 -7.57,3.89 -12.66,3.89 -5.09,0 -9.31,-1.3 -12.67,-3.89 -4.08,-3.13 -6.12,-7.41 -6.12,-12.82 0,-5.47 2.04,-9.75 6.12,-12.82 3.38,-2.54 7.57,-3.84 12.61,-3.89zm0.03 6.09c-3.31,0 -6,1.05 -8.08,3.17 -1.92,1.98 -2.89,4.47 -2.89,7.46 0,2.97 0.96,5.45 2.89,7.43 2.08,2.14 4.78,3.2 8.11,3.2 3.3,0 5.99,-1.06 8.07,-3.2 1.92,-1.96 2.89,-4.39 2.89,-7.28 0,-3.14 -0.97,-5.68 -2.89,-7.6 -2.1,-2.08 -4.8,-3.13 -8.1,-3.17zm33.17 20.85l17.94 0c0.61,0 1.07,-0.13 1.38,-0.39 0.3,-0.26 0.57,-0.73 0.77,-1.42l0.76 0 0 9.43 -0.76 0c-0.2,-0.68 -0.44,-1.15 -0.76,-1.41 -0.31,-0.26 -0.77,-0.4 -1.38,-0.4l-27.42 0 0 -0.82c0.66,-0.18 1.13,-0.42 1.41,-0.74 0.27,-0.32 0.41,-0.78 0.41,-1.38l0 -26.16c0,-0.6 -0.14,-1.04 -0.4,-1.35 -0.26,-0.3 -0.73,-0.57 -1.42,-0.77l0 -0.82 11.3 0 0 0.82c-0.68,0.19 -1.15,0.44 -1.42,0.76 -0.26,0.31 -0.4,0.76 -0.4,1.36l0 23.3zm57.69 -23.3l0 16.95c0,3.87 -0.76,6.72 -2.28,8.53 -2.46,2.88 -7.09,4.31 -13.89,4.31 -4.56,0 -8.24,-0.69 -11.04,-2.09 -2.02,-1 -3.4,-2.45 -4.15,-4.31 -0.68,-1.72 -1.02,-3.86 -1.02,-6.44l0 -16.95c0,-0.6 -0.14,-1.04 -0.4,-1.35 -0.26,-0.3 -0.73,-0.57 -1.42,-0.77l0 -0.82 11.3 0 0 0.82c-0.69,0.19 -1.16,0.44 -1.42,0.76 -0.26,0.31 -0.39,0.76 -0.39,1.36l0 15.39c0,1.8 0.16,3.16 0.47,4.12 0.31,0.95 0.86,1.73 1.64,2.34 1.56,1.24 3.82,1.86 6.76,1.86 2.95,0 5.2,-0.61 6.76,-1.86 0.75,-0.61 1.29,-1.39 1.59,-2.34 0.3,-0.96 0.46,-2.32 0.46,-4.12l0 -15.39c0,-0.6 -0.13,-1.04 -0.38,-1.35 -0.25,-0.3 -0.73,-0.57 -1.43,-0.77l0 -0.82 10.66 0 0 0.82c-0.68,0.2 -1.15,0.44 -1.42,0.76 -0.26,0.31 -0.4,0.76 -0.4,1.36zm24.56 2.86l0 23.28c0,0.59 0.14,1.03 0.4,1.36 0.26,0.31 0.73,0.58 1.42,0.78l0 0.82 -11.3 0 0 -0.82c0.66,-0.18 1.13,-0.42 1.4,-0.74 0.27,-0.32 0.41,-0.78 0.41,-1.38l0 -23.29 -9.45 0c-0.61,0 -1.07,0.14 -1.38,0.4 -0.32,0.27 -0.57,0.74 -0.76,1.42l-0.76 0 0 -9.43 0.76 0c0.18,0.66 0.42,1.13 0.73,1.41 0.31,0.27 0.78,0.41 1.38,0.41l26.59 0c0.6,0 1.07,-0.14 1.39,-0.4 0.32,-0.26 0.57,-0.73 0.76,-1.42l0.76 0 0 9.43 -0.76 0c-0.19,-0.67 -0.44,-1.14 -0.76,-1.42 -0.31,-0.26 -0.77,-0.4 -1.39,-0.4l-9.45 0zm25.11 -2.87l0 26.15c0,0.59 0.14,1.03 0.4,1.36 0.26,0.31 0.73,0.58 1.42,0.78l0 0.82 -11.3 0 0 -0.82c0.66,-0.18 1.13,-0.42 1.41,-0.74 0.27,-0.32 0.41,-0.78 0.41,-1.38l0 -26.16c0,-0.6 -0.14,-1.04 -0.4,-1.35 -0.26,-0.3 -0.73,-0.57 -1.42,-0.77l0 -0.82 11.3 0 0 0.82c-0.68,0.19 -1.15,0.44 -1.42,0.75 -0.26,0.32 -0.4,0.77 -0.4,1.36zm25.49 -3.63c5.09,0 9.32,1.3 12.72,3.89 4.06,3.13 6.09,7.49 6.09,13.08 0,5.25 -2.03,9.44 -6.09,12.57 -3.36,2.6 -7.57,3.89 -12.66,3.89 -5.09,0 -9.31,-1.3 -12.67,-3.89 -4.08,-3.13 -6.12,-7.41 -6.12,-12.82 0,-5.47 2.04,-9.75 6.12,-12.82 3.38,-2.54 7.57,-3.84 12.61,-3.89zm0.03 6.09c-3.31,0 -6,1.05 -8.08,3.17 -1.92,1.98 -2.89,4.47 -2.89,7.46 0,2.97 0.96,5.45 2.89,7.43 2.08,2.14 4.78,3.2 8.11,3.2 3.3,0 5.99,-1.06 8.07,-3.2 1.92,-1.96 2.89,-4.39 2.89,-7.28 0,-3.14 -0.97,-5.68 -2.89,-7.6 -2.1,-2.08 -4.8,-3.13 -8.1,-3.17zm32.47 5.54l0 18.14c0,0.59 0.14,1.04 0.41,1.37 0.27,0.32 0.74,0.58 1.4,0.77l0 0.82 -10.6 0 0 -0.82c0.66,-0.18 1.13,-0.42 1.41,-0.74 0.27,-0.32 0.41,-0.78 0.41,-1.38l0 -26.16c0,-0.6 -0.14,-1.04 -0.4,-1.35 -0.26,-0.3 -0.73,-0.57 -1.42,-0.77l0 -0.82 12.29 0 0 0.82c-0.84,0.21 -1.26,0.58 -1.26,1.11 0,0.46 0.3,1 0.92,1.6l17.22 17.02 0 -17.62c0,-0.6 -0.14,-1.04 -0.4,-1.36 -0.26,-0.32 -0.73,-0.58 -1.41,-0.76l0 -0.82 10.6 0 0 0.82c-0.68,0.19 -1.15,0.44 -1.42,0.75 -0.26,0.32 -0.4,0.77 -0.4,1.36l0 26.15c0,0.59 0.14,1.03 0.4,1.36 0.26,0.31 0.73,0.58 1.42,0.78l0 0.82 -11.46 0 0 -0.82c0.84,-0.17 1.26,-0.52 1.26,-1.04 0,-0.27 -0.12,-0.55 -0.34,-0.83 -0.24,-0.28 -0.75,-0.84 -1.57,-1.67l-17.05 -16.74zm65.56 -8.04l-3.86 7.47 -0.68 -0.37c0,-0.63 -0.21,-1.12 -0.61,-1.48 -1.08,-0.98 -2.69,-1.78 -4.81,-2.4 -2.12,-0.63 -4.26,-0.95 -6.44,-0.95 -1.84,0 -3.49,0.25 -4.92,0.77 -2.06,0.74 -3.09,1.82 -3.09,3.24 0,0.93 0.5,1.59 1.48,1.98 1,0.39 2.91,0.7 5.76,0.94l4.52 0.34c3.94,0.3 6.95,1.06 9.01,2.28 1.14,0.69 2.09,1.61 2.83,2.75 0.94,1.42 1.4,3.03 1.4,4.83 0,3.26 -1.46,5.84 -4.4,7.73 -2.81,1.81 -6.6,2.71 -11.39,2.71 -4.82,0 -9.49,-1.02 -13.99,-3.05 -0.3,-0.14 -0.57,-0.21 -0.77,-0.21 -0.38,0 -0.73,0.24 -1.06,0.69l-0.71 -0.29 3.29 -7.83 0.71 0.28c0,0.12 0,0.19 0,0.23 0,0.5 0.19,0.91 0.58,1.26 0.96,0.84 2.61,1.56 4.95,2.19 2.34,0.61 4.67,0.93 6.95,0.93 2.02,0 3.84,-0.26 5.44,-0.8 1.98,-0.65 2.98,-1.7 2.98,-3.15 0,-1.17 -0.68,-1.98 -2.06,-2.44 -0.92,-0.3 -2.57,-0.57 -4.96,-0.77l-4.49 -0.37c-2.42,-0.19 -4.27,-0.44 -5.55,-0.75 -1.28,-0.3 -2.39,-0.75 -3.35,-1.34 -1.22,-0.77 -2.18,-1.8 -2.86,-3.12 -0.69,-1.32 -1.03,-2.76 -1.03,-4.32 0,-3.51 1.51,-6.2 4.53,-8.05 2.74,-1.68 6.14,-2.52 10.19,-2.52 2.2,0 4.25,0.24 6.14,0.73 1.9,0.49 4.17,1.35 6.8,2.57 0.78,0.36 1.33,0.55 1.63,0.55 0.31,0 0.7,-0.21 1.18,-0.63l0.68 0.38zm30.96 13.27l0 12.87c0,0.58 0.14,1.02 0.41,1.33 0.27,0.32 0.74,0.56 1.4,0.73l0 0.94 -12.18 0 0 -0.94c0.68,-0.19 1.15,-0.44 1.41,-0.74 0.26,-0.3 0.4,-0.74 0.4,-1.32l0 -33.04c0,-0.6 -0.14,-1.04 -0.4,-1.35 -0.26,-0.3 -0.73,-0.56 -1.41,-0.74l0 -0.94 24.37 0c2.84,0 5.1,0.19 6.76,0.58 1.67,0.38 3.14,1.03 4.42,1.97 1.32,0.97 2.34,2.25 3.09,3.83 0.74,1.64 1.11,3.38 1.11,5.2 0,2.64 -0.7,4.94 -2.12,6.93 -1.22,1.69 -2.83,2.9 -4.84,3.61 -2.01,0.71 -4.82,1.07 -8.42,1.07l-14.01 0zm0 -6.44l13.03 0c2.59,0 4.42,-0.27 5.46,-0.83 0.67,-0.36 1.21,-0.94 1.62,-1.73 0.41,-0.79 0.61,-1.66 0.61,-2.62 0,-0.93 -0.2,-1.79 -0.61,-2.58 -0.41,-0.79 -0.95,-1.37 -1.62,-1.73 -1.02,-0.56 -2.85,-0.83 -5.46,-0.83l-13.03 0 0 10.31zm50.22 12.09l7.72 -16.85c0.46,-0.98 0.68,-1.7 0.68,-2.18 0,-0.96 -0.61,-1.61 -1.85,-1.97l0 -0.82 12.39 0 0 0.82c-0.76,0.24 -1.32,0.56 -1.66,0.92 -0.34,0.36 -0.78,1.1 -1.31,2.22l-11.2 23.59c-0.4,0.84 -0.6,1.48 -0.6,1.91 0,0.96 0.63,1.56 1.89,1.81l0 0.76 -12.55 0 0 -0.76c1.24,-0.24 1.86,-0.85 1.86,-1.81 0,-0.43 -0.2,-1.07 -0.6,-1.91l-11.2 -23.59c-0.54,-1.14 -0.96,-1.89 -1.31,-2.24 -0.33,-0.35 -0.89,-0.65 -1.67,-0.9l0 -0.82 12.86 0 0 0.82c-1.22,0.38 -1.84,1.03 -1.84,1.97 0,0.42 0.24,1.14 0.72,2.18l7.66 16.85zm39.25 -16.02l0 23.28c0,0.59 0.14,1.03 0.4,1.36 0.26,0.31 0.73,0.58 1.42,0.78l0 0.82 -11.3 0 0 -0.82c0.66,-0.18 1.13,-0.42 1.4,-0.74 0.27,-0.32 0.41,-0.78 0.41,-1.38l0 -23.29 -9.45 0c-0.61,0 -1.07,0.14 -1.38,0.4 -0.32,0.27 -0.57,0.74 -0.76,1.42l-0.76 0 0 -9.43 0.76 0c0.18,0.66 0.42,1.13 0.73,1.41 0.31,0.27 0.78,0.41 1.38,0.41l26.59 0c0.6,0 1.07,-0.14 1.39,-0.4 0.32,-0.26 0.57,-0.73 0.76,-1.42l0.76 0 0 9.43 -0.76 0c-0.19,-0.67 -0.44,-1.14 -0.76,-1.42 -0.31,-0.26 -0.77,-0.4 -1.39,-0.4l-9.45 0zm21.78 17.57c1.32,0 2.42,0.46 3.33,1.37 0.91,0.92 1.36,2.03 1.36,3.35 0,1.28 -0.46,2.37 -1.39,3.29 -0.93,0.91 -2.02,1.37 -3.3,1.37 -1.3,0 -2.4,-0.46 -3.32,-1.38 -0.91,-0.93 -1.37,-2.03 -1.37,-3.33 0,-1.28 0.45,-2.36 1.36,-3.27 0.91,-0.91 2.01,-1.37 3.33,-1.38zm37.51 2.22l23.97 0c0.6,0 1.04,-0.14 1.35,-0.4 0.3,-0.26 0.56,-0.73 0.74,-1.42l0.94 0 0 10.07 -0.94 0c-0.18,-0.68 -0.44,-1.15 -0.74,-1.41 -0.3,-0.26 -0.75,-0.4 -1.35,-0.4l-34.33 0 0 -0.94c0.68,-0.19 1.15,-0.44 1.41,-0.74 0.26,-0.3 0.4,-0.75 0.4,-1.35l0 -33.01c0,-0.6 -0.14,-1.04 -0.4,-1.35 -0.26,-0.3 -0.73,-0.56 -1.41,-0.74l0 -0.94 12.18 0 0 0.94c-0.68,0.18 -1.15,0.41 -1.41,0.73 -0.26,0.31 -0.4,0.76 -0.4,1.36l0 29.59z"/>
     <path class="fil2" d="M1356.21 129.33l0 23.28c0,0.59 0.14,1.03 0.4,1.36 0.26,0.31 0.73,0.58 1.42,0.78l0 0.82 -11.3 0 0 -0.82c0.66,-0.18 1.13,-0.42 1.4,-0.74 0.27,-0.32 0.41,-0.78 0.41,-1.38l0 -23.29 -9.45 0c-0.61,0 -1.07,0.14 -1.38,0.4 -0.32,0.27 -0.57,0.74 -0.76,1.42l-0.76 0 0 -9.43 0.76 0c0.18,0.66 0.42,1.13 0.73,1.41 0.31,0.27 0.78,0.41 1.38,0.41l26.59 0c0.6,0 1.07,-0.14 1.39,-0.4 0.32,-0.26 0.57,-0.73 0.76,-1.42l0.76 0 0 9.43 -0.76 0c-0.19,-0.67 -0.44,-1.14 -0.76,-1.42 -0.31,-0.26 -0.77,-0.4 -1.39,-0.4l-9.45 0zm17.44 23.29l0 -26.16c0,-0.6 -0.14,-1.04 -0.4,-1.35 -0.26,-0.3 -0.73,-0.57 -1.42,-0.77l0 -0.82 18.78 0c3.91,0 6.99,0.49 9.24,1.45 3.16,1.38 5.44,3.65 6.83,6.81 0.97,2.21 1.45,4.79 1.45,7.75 0,5.47 -1.63,9.62 -4.89,12.44 -1.46,1.26 -3.19,2.17 -5.19,2.73 -1.99,0.56 -4.47,0.84 -7.45,0.84l-18.78 0 0 -0.82c0.66,-0.18 1.13,-0.42 1.41,-0.74 0.27,-0.32 0.41,-0.78 0.41,-1.38zm7.67 -2.86l8.19 0c3.76,0 6.48,-0.86 8.18,-2.58 1.78,-1.8 2.66,-4.34 2.66,-7.64 0,-3.3 -0.89,-5.85 -2.66,-7.64 -0.88,-0.9 -1.96,-1.55 -3.26,-1.96 -1.3,-0.41 -2.94,-0.61 -4.92,-0.61l-8.19 0 0 20.44zm37.87 -2.87c1.32,0 2.42,0.46 3.33,1.37 0.91,0.92 1.36,2.03 1.36,3.35 0,1.28 -0.46,2.37 -1.39,3.29 -0.93,0.91 -2.02,1.37 -3.3,1.37 -1.3,0 -2.4,-0.46 -3.32,-1.38 -0.91,-0.93 -1.37,-2.03 -1.37,-3.33 0,-1.28 0.45,-2.36 1.36,-3.27 0.91,-0.91 2.01,-1.37 3.33,-1.38z"/>
    </g>
    <path class="fil3" d="M184.35 196.81c1.08,0 1.91,-0.26 2.46,-0.78 0.56,-0.52 0.84,-1.23 0.84,-2.12 0,-0.89 -0.28,-1.6 -0.84,-2.14 -0.56,-0.53 -1.38,-0.8 -2.46,-0.8l-4.84 0 0 5.84 4.84 0zm-4.84 -13.51l0 5.07 3.33 0c0.97,0 1.69,-0.24 2.18,-0.71 0.48,-0.48 0.73,-1.09 0.73,-1.85 0,-0.76 -0.24,-1.37 -0.73,-1.82 -0.48,-0.46 -1.21,-0.68 -2.18,-0.68l-3.33 0zm7.67 5.9c1.11,0.36 1.98,0.96 2.59,1.78 0.61,0.83 0.92,1.83 0.92,3.01 0,0.8 -0.14,1.53 -0.43,2.19 -0.29,0.66 -0.69,1.24 -1.22,1.72 -0.53,0.48 -1.17,0.86 -1.92,1.14 -0.75,0.28 -1.59,0.41 -2.52,0.41l-8.05 0 0 -18.81 6.58 0c0.85,0 1.63,0.12 2.32,0.37 0.69,0.25 1.29,0.59 1.78,1.04 0.49,0.45 0.87,0.97 1.14,1.58 0.27,0.61 0.4,1.28 0.4,2.02 0,1.46 -0.53,2.64 -1.6,3.53zm27.53 2.65c0,1.25 -0.19,2.37 -0.58,3.35 -0.39,0.98 -0.93,1.81 -1.61,2.49 -0.68,0.68 -1.5,1.2 -2.44,1.55 -0.94,0.35 -1.96,0.53 -3.06,0.53 -1.12,0 -2.16,-0.18 -3.11,-0.53 -0.95,-0.35 -1.77,-0.87 -2.45,-1.55 -0.68,-0.68 -1.22,-1.52 -1.61,-2.49 -0.39,-0.98 -0.59,-2.1 -0.59,-3.35l0 -11.2 3.02 0 0 11.4c0,0.84 0.12,1.56 0.37,2.18 0.25,0.62 0.58,1.13 1.01,1.54 0.43,0.41 0.93,0.72 1.5,0.93 0.57,0.21 1.19,0.31 1.85,0.31 0.65,0 1.25,-0.11 1.82,-0.31 0.57,-0.21 1.07,-0.52 1.5,-0.93 0.43,-0.41 0.76,-0.92 1,-1.54 0.24,-0.62 0.36,-1.34 0.36,-2.18l0 -11.4 3.02 0 0 11.2zm12.86 7.61l-3.02 0 0 -18.81 3.02 0 0 18.81zm13.06 -2.71l8.61 0 0 2.71 -11.63 0 0 -18.81 3.02 0 0 16.1zm19.98 -13.34l0 13.34 2.85 0c1.1,0 2.1,-0.17 2.98,-0.5 0.88,-0.33 1.63,-0.79 2.25,-1.39 0.62,-0.6 1.09,-1.31 1.42,-2.13 0.33,-0.83 0.5,-1.72 0.5,-2.69 0,-1.01 -0.17,-1.91 -0.5,-2.73 -0.33,-0.81 -0.81,-1.51 -1.42,-2.09 -0.62,-0.58 -1.37,-1.02 -2.25,-1.33 -0.88,-0.31 -1.88,-0.47 -2.98,-0.47l-2.85 0zm2.88 -2.76c1.56,0 2.96,0.23 4.22,0.68 1.25,0.46 2.33,1.1 3.22,1.92 0.89,0.83 1.58,1.81 2.07,2.96 0.48,1.15 0.73,2.42 0.73,3.8 0,1.37 -0.24,2.63 -0.73,3.78 -0.48,1.15 -1.17,2.15 -2.07,2.99 -0.89,0.84 -1.97,1.5 -3.22,1.97 -1.26,0.47 -2.66,0.7 -4.22,0.7l-5.9 0 0 -18.81 5.9 0zm22.14 18.81l-3.02 0 0 -18.81 3.02 0 0 18.81zm25.54 -18.81l0 19.12 -1.03 0 -11.46 -13.02 0 12.71 -3.02 0 0 -19.12 1.06 0 11.43 12.99 0 -12.68 3.02 0zm18.84 -0.31c1.67,0 3.16,0.34 4.47,1.03 1.31,0.68 2.41,1.65 3.31,2.91l-2.19 1.8c-0.66,-0.93 -1.46,-1.66 -2.38,-2.18 -0.92,-0.52 -2,-0.78 -3.24,-0.78 -1.01,0 -1.92,0.18 -2.75,0.53 -0.83,0.35 -1.54,0.84 -2.14,1.45 -0.6,0.62 -1.06,1.35 -1.38,2.19 -0.32,0.84 -0.48,1.76 -0.48,2.75 0,1.01 0.17,1.94 0.5,2.81 0.33,0.86 0.81,1.61 1.43,2.24 0.62,0.63 1.35,1.12 2.19,1.47 0.84,0.35 1.78,0.53 2.81,0.53 1.27,0 2.38,-0.26 3.33,-0.78 0.95,-0.52 1.71,-1.21 2.28,-2.07l0 -2.02 -5.78 0 0 -2.68 8.81 0 0 5.3c-0.4,0.74 -0.9,1.42 -1.51,2.02 -0.61,0.61 -1.29,1.13 -2.04,1.57 -0.75,0.44 -1.57,0.77 -2.45,1.01 -0.88,0.24 -1.81,0.36 -2.78,0.36 -1.41,0 -2.71,-0.25 -3.92,-0.74 -1.21,-0.49 -2.25,-1.18 -3.13,-2.05 -0.88,-0.87 -1.58,-1.9 -2.1,-3.09 -0.51,-1.19 -0.77,-2.46 -0.77,-3.83 0,-1.37 0.26,-2.64 0.77,-3.83 0.51,-1.19 1.22,-2.22 2.11,-3.09 0.89,-0.87 1.94,-1.56 3.15,-2.05 1.21,-0.49 2.5,-0.74 3.89,-0.74zm32.83 5.58l-3.13 7.81 6.24 0 -3.11 -7.81zm4.22 10.4l-8.46 0 -1.34 3.13 -3.22 0 8.29 -19.12 1.03 0 8.29 19.12 -3.25 0 -1.34 -3.13zm34.51 -15.99c1.39,0 2.6,0.32 3.65,0.96 1.04,0.64 1.85,1.44 2.42,2.41l-2.11 1.62c-0.49,-0.72 -1.07,-1.28 -1.74,-1.68 -0.66,-0.4 -1.41,-0.6 -2.22,-0.6 -0.76,0 -1.42,0.18 -1.99,0.55 -0.57,0.37 -0.85,0.95 -0.85,1.72 0,0.36 0.07,0.67 0.2,0.93 0.13,0.26 0.31,0.48 0.54,0.68 0.23,0.2 0.5,0.38 0.83,0.56 0.32,0.17 0.67,0.34 1.05,0.51l2.11 0.97c0.7,0.32 1.33,0.66 1.9,1.02 0.56,0.36 1.03,0.76 1.42,1.18 0.39,0.43 0.68,0.9 0.88,1.41 0.2,0.51 0.3,1.09 0.3,1.74 0,0.84 -0.16,1.59 -0.48,2.27 -0.32,0.67 -0.77,1.24 -1.32,1.71 -0.56,0.47 -1.23,0.83 -1.99,1.08 -0.77,0.26 -1.6,0.38 -2.49,0.38 -1.58,0 -2.97,-0.36 -4.19,-1.1 -1.22,-0.73 -2.18,-1.72 -2.91,-2.98l2.14 -1.62c0.27,0.4 0.57,0.78 0.9,1.14 0.33,0.36 0.7,0.68 1.1,0.95 0.4,0.28 0.84,0.49 1.32,0.66 0.48,0.16 1.02,0.24 1.61,0.24 0.97,0 1.75,-0.23 2.35,-0.7 0.6,-0.47 0.9,-1.11 0.9,-1.92 0,-0.36 -0.07,-0.68 -0.2,-0.95 -0.13,-0.28 -0.32,-0.52 -0.57,-0.73 -0.25,-0.21 -0.54,-0.4 -0.87,-0.59 -0.33,-0.18 -0.71,-0.36 -1.13,-0.55l-2.08 -0.97c-0.61,-0.28 -1.18,-0.59 -1.71,-0.91 -0.53,-0.32 -1,-0.69 -1.4,-1.11 -0.4,-0.42 -0.71,-0.89 -0.94,-1.41 -0.23,-0.52 -0.34,-1.12 -0.34,-1.78 0,-0.78 0.16,-1.48 0.47,-2.11 0.31,-0.63 0.74,-1.16 1.28,-1.61 0.54,-0.45 1.17,-0.79 1.88,-1.02 0.71,-0.24 1.48,-0.36 2.29,-0.36zm29.35 3.02l-6.35 0 0 16.1 -3.02 0 0 -16.1 -6.33 0 0 -2.71 15.7 0 0 2.71zm11.15 6.15l3.79 0c1.08,0 1.91,-0.28 2.48,-0.85 0.57,-0.57 0.85,-1.31 0.85,-2.22 0,-0.91 -0.29,-1.66 -0.85,-2.24 -0.57,-0.58 -1.4,-0.87 -2.48,-0.87l-3.79 0 0 6.18zm8.81 9.95l-5.36 -7.27 -3.45 0 0 7.27 -3.02 0 0 -18.81 6.87 0c0.95,0 1.82,0.14 2.61,0.41 0.79,0.28 1.46,0.67 2.02,1.18 0.56,0.51 0.99,1.12 1.3,1.82 0.3,0.7 0.46,1.48 0.46,2.34 0,1.25 -0.32,2.34 -0.95,3.26 -0.64,0.92 -1.52,1.6 -2.66,2.04l5.64 7.75 -3.45 0zm20.21 -16.36c-0.97,0 -1.87,0.18 -2.69,0.53 -0.83,0.35 -1.54,0.83 -2.14,1.44 -0.6,0.61 -1.07,1.34 -1.41,2.19 -0.34,0.85 -0.51,1.78 -0.51,2.76 0,1.01 0.17,1.94 0.51,2.79 0.34,0.85 0.81,1.59 1.41,2.21 0.6,0.62 1.31,1.1 2.14,1.45 0.83,0.35 1.72,0.53 2.69,0.53 0.97,0 1.86,-0.18 2.68,-0.53 0.82,-0.35 1.53,-0.84 2.14,-1.45 0.61,-0.62 1.08,-1.35 1.42,-2.21 0.34,-0.85 0.51,-1.79 0.51,-2.79 0,-0.99 -0.17,-1.91 -0.51,-2.75 -0.34,-0.84 -0.82,-1.58 -1.42,-2.19 -0.61,-0.62 -1.32,-1.1 -2.14,-1.45 -0.82,-0.35 -1.71,-0.53 -2.68,-0.53zm-0.03 -2.76c1.37,0 2.65,0.25 3.85,0.74 1.2,0.49 2.24,1.18 3.13,2.05 0.89,0.87 1.6,1.91 2.12,3.09 0.52,1.19 0.78,2.46 0.78,3.83 0,1.39 -0.26,2.67 -0.78,3.86 -0.52,1.19 -1.23,2.21 -2.12,3.08 -0.89,0.86 -1.94,1.54 -3.13,2.04 -1.2,0.49 -2.48,0.74 -3.85,0.74 -1.37,0 -2.66,-0.25 -3.86,-0.74 -1.21,-0.49 -2.25,-1.18 -3.13,-2.05 -0.88,-0.87 -1.58,-1.9 -2.1,-3.09 -0.51,-1.19 -0.77,-2.46 -0.77,-3.83 0,-1.37 0.26,-2.64 0.77,-3.83 0.51,-1.19 1.22,-2.22 2.11,-3.09 0.89,-0.87 1.94,-1.56 3.13,-2.05 1.2,-0.49 2.48,-0.74 3.85,-0.74zm34.31 0.31l0 19.12 -1.03 0 -11.46 -13.02 0 12.71 -3.02 0 0 -19.12 1.06 0 11.43 12.99 0 -12.68 3.02 0zm18.84 -0.31c1.67,0 3.16,0.34 4.47,1.03 1.31,0.68 2.41,1.65 3.31,2.91l-2.19 1.8c-0.66,-0.93 -1.46,-1.66 -2.38,-2.18 -0.92,-0.52 -2,-0.78 -3.24,-0.78 -1.01,0 -1.92,0.18 -2.75,0.53 -0.83,0.35 -1.54,0.84 -2.14,1.45 -0.6,0.62 -1.06,1.35 -1.38,2.19 -0.32,0.84 -0.48,1.76 -0.48,2.75 0,1.01 0.17,1.94 0.5,2.81 0.33,0.86 0.81,1.61 1.43,2.24 0.62,0.63 1.35,1.12 2.19,1.47 0.84,0.35 1.78,0.53 2.81,0.53 1.27,0 2.38,-0.26 3.33,-0.78 0.95,-0.52 1.71,-1.21 2.28,-2.07l0 -2.02 -5.78 0 0 -2.68 8.81 0 0 5.3c-0.4,0.74 -0.9,1.42 -1.51,2.02 -0.61,0.61 -1.29,1.13 -2.04,1.57 -0.75,0.44 -1.57,0.77 -2.45,1.01 -0.88,0.24 -1.81,0.36 -2.78,0.36 -1.41,0 -2.71,-0.25 -3.92,-0.74 -1.21,-0.49 -2.25,-1.18 -3.13,-2.05 -0.88,-0.87 -1.58,-1.9 -2.1,-3.09 -0.51,-1.19 -0.77,-2.46 -0.77,-3.83 0,-1.37 0.26,-2.64 0.77,-3.83 0.51,-1.19 1.22,-2.22 2.11,-3.09 0.89,-0.87 1.94,-1.56 3.15,-2.05 1.21,-0.49 2.5,-0.74 3.89,-0.74zm30.15 3.02l-9.35 0 0 4.81 7.04 0 0 2.62 -7.04 0 0 5.96 9.69 0 0 2.71 -12.71 0 0 -18.81 12.37 0 0 2.71zm12.17 6.15l3.79 0c1.08,0 1.91,-0.28 2.48,-0.85 0.57,-0.57 0.85,-1.31 0.85,-2.22 0,-0.91 -0.29,-1.66 -0.85,-2.24 -0.57,-0.58 -1.4,-0.87 -2.48,-0.87l-3.79 0 0 6.18zm8.81 9.95l-5.36 -7.27 -3.45 0 0 7.27 -3.02 0 0 -18.81 6.87 0c0.95,0 1.82,0.14 2.61,0.41 0.79,0.28 1.46,0.67 2.02,1.18 0.56,0.51 0.99,1.12 1.3,1.82 0.3,0.7 0.46,1.48 0.46,2.34 0,1.25 -0.32,2.34 -0.95,3.26 -0.64,0.92 -1.52,1.6 -2.66,2.04l5.64 7.75 -3.45 0zm35.22 -2.65c1.08,0 1.91,-0.26 2.46,-0.78 0.56,-0.52 0.84,-1.23 0.84,-2.12 0,-0.89 -0.28,-1.6 -0.84,-2.14 -0.56,-0.53 -1.38,-0.8 -2.46,-0.8l-4.84 0 0 5.84 4.84 0zm-4.84 -13.51l0 5.07 3.33 0c0.97,0 1.69,-0.24 2.18,-0.71 0.48,-0.48 0.73,-1.09 0.73,-1.85 0,-0.76 -0.24,-1.37 -0.73,-1.82 -0.48,-0.46 -1.21,-0.68 -2.18,-0.68l-3.33 0zm7.67 5.9c1.11,0.36 1.98,0.96 2.59,1.78 0.61,0.83 0.92,1.83 0.92,3.01 0,0.8 -0.14,1.53 -0.43,2.19 -0.29,0.66 -0.69,1.24 -1.22,1.72 -0.53,0.48 -1.17,0.86 -1.92,1.14 -0.75,0.28 -1.59,0.41 -2.52,0.41l-8.05 0 0 -18.81 6.58 0c0.85,0 1.63,0.12 2.32,0.37 0.69,0.25 1.29,0.59 1.78,1.04 0.49,0.45 0.87,0.97 1.14,1.58 0.27,0.61 0.4,1.28 0.4,2.02 0,1.46 -0.53,2.64 -1.6,3.53zm27.53 2.65c0,1.25 -0.19,2.37 -0.58,3.35 -0.39,0.98 -0.93,1.81 -1.61,2.49 -0.68,0.68 -1.5,1.2 -2.44,1.55 -0.94,0.35 -1.96,0.53 -3.06,0.53 -1.12,0 -2.16,-0.18 -3.11,-0.53 -0.95,-0.35 -1.77,-0.87 -2.45,-1.55 -0.68,-0.68 -1.22,-1.52 -1.61,-2.49 -0.39,-0.98 -0.59,-2.1 -0.59,-3.35l0 -11.2 3.02 0 0 11.4c0,0.84 0.12,1.56 0.37,2.18 0.25,0.62 0.58,1.13 1.01,1.54 0.43,0.41 0.93,0.72 1.5,0.93 0.57,0.21 1.19,0.31 1.85,0.31 0.65,0 1.25,-0.11 1.82,-0.31 0.57,-0.21 1.07,-0.52 1.5,-0.93 0.43,-0.41 0.76,-0.92 1,-1.54 0.24,-0.62 0.36,-1.34 0.36,-2.18l0 -11.4 3.02 0 0 11.2zm15.51 -11.51c1.39,0 2.6,0.32 3.65,0.96 1.04,0.64 1.85,1.44 2.42,2.41l-2.11 1.62c-0.49,-0.72 -1.07,-1.28 -1.74,-1.68 -0.66,-0.4 -1.41,-0.6 -2.22,-0.6 -0.76,0 -1.42,0.18 -1.99,0.55 -0.57,0.37 -0.85,0.95 -0.85,1.72 0,0.36 0.07,0.67 0.2,0.93 0.13,0.26 0.31,0.48 0.54,0.68 0.23,0.2 0.5,0.38 0.83,0.56 0.32,0.17 0.67,0.34 1.05,0.51l2.11 0.97c0.7,0.32 1.33,0.66 1.9,1.02 0.56,0.36 1.03,0.76 1.42,1.18 0.39,0.43 0.68,0.9 0.88,1.41 0.2,0.51 0.3,1.09 0.3,1.74 0,0.84 -0.16,1.59 -0.48,2.27 -0.32,0.67 -0.77,1.24 -1.32,1.71 -0.56,0.47 -1.23,0.83 -1.99,1.08 -0.77,0.26 -1.6,0.38 -2.49,0.38 -1.58,0 -2.97,-0.36 -4.19,-1.1 -1.22,-0.73 -2.18,-1.72 -2.91,-2.98l2.14 -1.62c0.27,0.4 0.57,0.78 0.9,1.14 0.33,0.36 0.7,0.68 1.1,0.95 0.4,0.28 0.84,0.49 1.32,0.66 0.48,0.16 1.02,0.24 1.61,0.24 0.97,0 1.75,-0.23 2.35,-0.7 0.6,-0.47 0.9,-1.11 0.9,-1.92 0,-0.36 -0.07,-0.68 -0.2,-0.95 -0.13,-0.28 -0.32,-0.52 -0.57,-0.73 -0.25,-0.21 -0.54,-0.4 -0.87,-0.59 -0.33,-0.18 -0.71,-0.36 -1.13,-0.55l-2.08 -0.97c-0.61,-0.28 -1.18,-0.59 -1.71,-0.91 -0.53,-0.32 -1,-0.69 -1.4,-1.11 -0.4,-0.42 -0.71,-0.89 -0.94,-1.41 -0.23,-0.52 -0.34,-1.12 -0.34,-1.78 0,-0.78 0.16,-1.48 0.47,-2.11 0.31,-0.63 0.74,-1.16 1.28,-1.61 0.54,-0.45 1.17,-0.79 1.88,-1.02 0.71,-0.24 1.48,-0.36 2.29,-0.36zm18.58 19.12l-3.02 0 0 -18.81 3.02 0 0 18.81zm25.54 -18.81l0 19.12 -1.03 0 -11.46 -13.02 0 12.71 -3.02 0 0 -19.12 1.06 0 11.43 12.99 0 -12.68 3.02 0zm22.43 2.71l-9.35 0 0 4.81 7.04 0 0 2.62 -7.04 0 0 5.96 9.69 0 0 2.71 -12.71 0 0 -18.81 12.37 0 0 2.71zm14.82 -3.02c1.39,0 2.6,0.32 3.65,0.96 1.04,0.64 1.85,1.44 2.42,2.41l-2.11 1.62c-0.49,-0.72 -1.07,-1.28 -1.74,-1.68 -0.66,-0.4 -1.41,-0.6 -2.22,-0.6 -0.76,0 -1.42,0.18 -1.99,0.55 -0.57,0.37 -0.85,0.95 -0.85,1.72 0,0.36 0.07,0.67 0.2,0.93 0.13,0.26 0.31,0.48 0.54,0.68 0.23,0.2 0.5,0.38 0.83,0.56 0.32,0.17 0.67,0.34 1.05,0.51l2.11 0.97c0.7,0.32 1.33,0.66 1.9,1.02 0.56,0.36 1.03,0.76 1.42,1.18 0.39,0.43 0.68,0.9 0.88,1.41 0.2,0.51 0.3,1.09 0.3,1.74 0,0.84 -0.16,1.59 -0.48,2.27 -0.32,0.67 -0.77,1.24 -1.32,1.71 -0.56,0.47 -1.23,0.83 -1.99,1.08 -0.77,0.26 -1.6,0.38 -2.49,0.38 -1.58,0 -2.97,-0.36 -4.19,-1.1 -1.22,-0.73 -2.18,-1.72 -2.91,-2.98l2.14 -1.62c0.27,0.4 0.57,0.78 0.9,1.14 0.33,0.36 0.7,0.68 1.1,0.95 0.4,0.28 0.84,0.49 1.32,0.66 0.48,0.16 1.02,0.24 1.61,0.24 0.97,0 1.75,-0.23 2.35,-0.7 0.6,-0.47 0.9,-1.11 0.9,-1.92 0,-0.36 -0.07,-0.68 -0.2,-0.95 -0.13,-0.28 -0.32,-0.52 -0.57,-0.73 -0.25,-0.21 -0.54,-0.4 -0.87,-0.59 -0.33,-0.18 -0.71,-0.36 -1.13,-0.55l-2.08 -0.97c-0.61,-0.28 -1.18,-0.59 -1.71,-0.91 -0.53,-0.32 -1,-0.69 -1.4,-1.11 -0.4,-0.42 -0.71,-0.89 -0.94,-1.41 -0.23,-0.52 -0.34,-1.12 -0.34,-1.78 0,-0.78 0.16,-1.48 0.47,-2.11 0.31,-0.63 0.74,-1.16 1.28,-1.61 0.54,-0.45 1.17,-0.79 1.88,-1.02 0.71,-0.24 1.48,-0.36 2.29,-0.36zm21.23 0c1.39,0 2.6,0.32 3.65,0.96 1.04,0.64 1.85,1.44 2.42,2.41l-2.11 1.62c-0.49,-0.72 -1.07,-1.28 -1.74,-1.68 -0.66,-0.4 -1.41,-0.6 -2.22,-0.6 -0.76,0 -1.42,0.18 -1.99,0.55 -0.57,0.37 -0.85,0.95 -0.85,1.72 0,0.36 0.07,0.67 0.2,0.93 0.13,0.26 0.31,0.48 0.54,0.68 0.23,0.2 0.5,0.38 0.83,0.56 0.32,0.17 0.67,0.34 1.05,0.51l2.11 0.97c0.7,0.32 1.33,0.66 1.9,1.02 0.56,0.36 1.03,0.76 1.42,1.18 0.39,0.43 0.68,0.9 0.88,1.41 0.2,0.51 0.3,1.09 0.3,1.74 0,0.84 -0.16,1.59 -0.48,2.27 -0.32,0.67 -0.77,1.24 -1.32,1.71 -0.56,0.47 -1.23,0.83 -1.99,1.08 -0.77,0.26 -1.6,0.38 -2.49,0.38 -1.58,0 -2.97,-0.36 -4.19,-1.1 -1.22,-0.73 -2.18,-1.72 -2.91,-2.98l2.14 -1.62c0.27,0.4 0.57,0.78 0.9,1.14 0.33,0.36 0.7,0.68 1.1,0.95 0.4,0.28 0.84,0.49 1.32,0.66 0.48,0.16 1.02,0.24 1.61,0.24 0.97,0 1.75,-0.23 2.35,-0.7 0.6,-0.47 0.9,-1.11 0.9,-1.92 0,-0.36 -0.07,-0.68 -0.2,-0.95 -0.13,-0.28 -0.32,-0.52 -0.57,-0.73 -0.25,-0.21 -0.54,-0.4 -0.87,-0.59 -0.33,-0.18 -0.71,-0.36 -1.13,-0.55l-2.08 -0.97c-0.61,-0.28 -1.18,-0.59 -1.71,-0.91 -0.53,-0.32 -1,-0.69 -1.4,-1.11 -0.4,-0.42 -0.71,-0.89 -0.94,-1.41 -0.23,-0.52 -0.34,-1.12 -0.34,-1.78 0,-0.78 0.16,-1.48 0.47,-2.11 0.31,-0.63 0.74,-1.16 1.28,-1.61 0.54,-0.45 1.17,-0.79 1.88,-1.02 0.71,-0.24 1.48,-0.36 2.29,-0.36zm45.31 3.02l-6.35 0 0 16.1 -3.02 0 0 -16.1 -6.33 0 0 -2.71 15.7 0 0 2.71zm16.87 -0.26c-0.97,0 -1.87,0.18 -2.69,0.53 -0.83,0.35 -1.54,0.83 -2.14,1.44 -0.6,0.61 -1.07,1.34 -1.41,2.19 -0.34,0.85 -0.51,1.78 -0.51,2.76 0,1.01 0.17,1.94 0.51,2.79 0.34,0.85 0.81,1.59 1.41,2.21 0.6,0.62 1.31,1.1 2.14,1.45 0.83,0.35 1.72,0.53 2.69,0.53 0.97,0 1.86,-0.18 2.68,-0.53 0.82,-0.35 1.53,-0.84 2.14,-1.45 0.61,-0.62 1.08,-1.35 1.42,-2.21 0.34,-0.85 0.51,-1.79 0.51,-2.79 0,-0.99 -0.17,-1.91 -0.51,-2.75 -0.34,-0.84 -0.82,-1.58 -1.42,-2.19 -0.61,-0.62 -1.32,-1.1 -2.14,-1.45 -0.82,-0.35 -1.71,-0.53 -2.68,-0.53zm-0.03 -2.76c1.37,0 2.65,0.25 3.85,0.74 1.2,0.49 2.24,1.18 3.13,2.05 0.89,0.87 1.6,1.91 2.12,3.09 0.52,1.19 0.78,2.46 0.78,3.83 0,1.39 -0.26,2.67 -0.78,3.86 -0.52,1.19 -1.23,2.21 -2.12,3.08 -0.89,0.86 -1.94,1.54 -3.13,2.04 -1.2,0.49 -2.48,0.74 -3.85,0.74 -1.37,0 -2.66,-0.25 -3.86,-0.74 -1.21,-0.49 -2.25,-1.18 -3.13,-2.05 -0.88,-0.87 -1.58,-1.9 -2.1,-3.09 -0.51,-1.19 -0.77,-2.46 -0.77,-3.83 0,-1.37 0.26,-2.64 0.77,-3.83 0.51,-1.19 1.22,-2.22 2.11,-3.09 0.89,-0.87 1.94,-1.56 3.13,-2.05 1.2,-0.49 2.48,-0.74 3.85,-0.74zm27.59 0c1.67,0 3.16,0.34 4.47,1.03 1.31,0.68 2.41,1.65 3.31,2.91l-2.19 1.8c-0.66,-0.93 -1.46,-1.66 -2.38,-2.18 -0.92,-0.52 -2,-0.78 -3.24,-0.78 -1.01,0 -1.92,0.18 -2.75,0.53 -0.83,0.35 -1.54,0.84 -2.14,1.45 -0.6,0.62 -1.06,1.35 -1.38,2.19 -0.32,0.84 -0.48,1.76 -0.48,2.75 0,1.01 0.17,1.94 0.5,2.81 0.33,0.86 0.81,1.61 1.43,2.24 0.62,0.63 1.35,1.12 2.19,1.47 0.84,0.35 1.78,0.53 2.81,0.53 1.27,0 2.38,-0.26 3.33,-0.78 0.95,-0.52 1.71,-1.21 2.28,-2.07l0 -2.02 -5.78 0 0 -2.68 8.81 0 0 5.3c-0.4,0.74 -0.9,1.42 -1.51,2.02 -0.61,0.61 -1.29,1.13 -2.04,1.57 -0.75,0.44 -1.57,0.77 -2.45,1.01 -0.88,0.24 -1.81,0.36 -2.78,0.36 -1.41,0 -2.71,-0.25 -3.92,-0.74 -1.21,-0.49 -2.25,-1.18 -3.13,-2.05 -0.88,-0.87 -1.58,-1.9 -2.1,-3.09 -0.51,-1.19 -0.77,-2.46 -0.77,-3.83 0,-1.37 0.26,-2.64 0.77,-3.83 0.51,-1.19 1.22,-2.22 2.11,-3.09 0.89,-0.87 1.94,-1.56 3.15,-2.05 1.21,-0.49 2.5,-0.74 3.89,-0.74zm30.15 3.02l-9.35 0 0 4.81 7.04 0 0 2.62 -7.04 0 0 5.96 9.69 0 0 2.71 -12.71 0 0 -18.81 12.37 0 0 2.71zm22.94 0l-6.35 0 0 16.1 -3.02 0 0 -16.1 -6.33 0 0 -2.71 15.7 0 0 2.71zm23.63 16.1l-3.02 0 0 -8.61 -9.46 0 0 8.61 -3.02 0 0 -18.81 3.02 0 0 7.5 9.46 0 0 -7.5 3.02 0 0 18.81zm22.43 -16.1l-9.35 0 0 4.81 7.04 0 0 2.62 -7.04 0 0 5.96 9.69 0 0 2.71 -12.71 0 0 -18.81 12.37 0 0 2.71zm12.17 6.15l3.79 0c1.08,0 1.91,-0.28 2.48,-0.85 0.57,-0.57 0.85,-1.31 0.85,-2.22 0,-0.91 -0.29,-1.66 -0.85,-2.24 -0.57,-0.58 -1.4,-0.87 -2.48,-0.87l-3.79 0 0 6.18zm8.81 9.95l-5.36 -7.27 -3.45 0 0 7.27 -3.02 0 0 -18.81 6.87 0c0.95,0 1.82,0.14 2.61,0.41 0.79,0.28 1.46,0.67 2.02,1.18 0.56,0.51 0.99,1.12 1.3,1.82 0.3,0.7 0.46,1.48 0.46,2.34 0,1.25 -0.32,2.34 -0.95,3.26 -0.64,0.92 -1.52,1.6 -2.66,2.04l5.64 7.75 -3.45 0z"/>
   </g>
  </g>
 </g>
</svg>
