<?xml version="1.0" encoding="UTF-8"?>
<!DOCTYPE svg PUBLIC "-//W3C//DTD SVG 1.1//EN" "http://www.w3.org/Graphics/SVG/1.1/DTD/svg11.dtd">
<!-- Creator: CorelDRAW 2021 (64-Bit) -->
<svg xmlns="http://www.w3.org/2000/svg" xml:space="preserve" width="3.02828in" height="1.18265in" version="1.1" style="shape-rendering:geometricPrecision; text-rendering:geometricPrecision; image-rendering:optimizeQuality; fill-rule:evenodd; clip-rule:evenodd"
viewBox="0 0 792.72 309.58"
 xmlns:xlink="http://www.w3.org/1999/xlink"
 xmlns:xodm="http://www.corel.com/coreldraw/odm/2003">
 <defs>
  <style type="text/css">
   <![CDATA[
    .fil0 {fill:#2F538D;fill-rule:nonzero}
    .fil3 {fill:#BF9405;fill-rule:nonzero}
    .fil2 {fill:url(#id0)}
    .fil1 {fill:url(#id1);fill-rule:nonzero}
   ]]>
  </style>
  <linearGradient id="id0" gradientUnits="userSpaceOnUse" x1="373.33" y1="228.68" x2="377.3" y2="77.53">
   <stop offset="0" style="stop-opacity:1; stop-color:#283350"/>
   <stop offset="1" style="stop-opacity:1; stop-color:#087EAE"/>
  </linearGradient>
  <linearGradient id="id1" gradientUnits="userSpaceOnUse" x1="437.64" y1="233.52" x2="401.88" y2="4.27">
   <stop offset="0" style="stop-opacity:1; stop-color:#FFF282"/>
   <stop offset="0.180392" style="stop-opacity:1; stop-color:#BC9000"/>
   <stop offset="0.568627" style="stop-opacity:1; stop-color:#C49C00"/>
   <stop offset="0.74902" style="stop-opacity:1; stop-color:#FFF6AA"/>
   <stop offset="1" style="stop-opacity:1; stop-color:#FFF6AA"/>
  </linearGradient>
 </defs>
 <g id="Layer_x0020_1">
  <metadata id="CorelCorpID_0Corel-Layer"/>
  <g id="_2405130660640">
   <g>
    <path class="fil0" d="M6.59 271.37l0 8.22c0,0.37 0.09,0.65 0.26,0.84 0.17,0.2 0.47,0.35 0.89,0.46l0 0.6 -7.74 0 0 -0.6c0.43,-0.12 0.73,-0.28 0.9,-0.47 0.17,-0.19 0.25,-0.47 0.25,-0.84l0 -21c0,-0.38 -0.09,-0.66 -0.25,-0.86 -0.17,-0.19 -0.46,-0.35 -0.9,-0.47l0 -0.59 15.53 0c1.89,0 3.39,0.11 4.5,0.33 1.11,0.22 2.08,0.6 2.9,1.15 0.96,0.63 1.67,1.49 2.15,2.57 0.45,1.04 0.67,2.16 0.67,3.35 0,4.06 -2.25,6.43 -6.75,7.12l4.82 6.83c0.84,1.2 1.46,1.97 1.86,2.31 0.4,0.34 0.87,0.53 1.44,0.57l0 0.6 -8.98 0 0 -0.6c0.61,-0.1 0.92,-0.32 0.92,-0.65 0,-0.22 -0.29,-0.74 -0.86,-1.58l-5.05 -7.29 -6.58 0zm0 -4.09l8.37 0c1.23,0 2.11,-0.04 2.62,-0.11 0.51,-0.07 0.98,-0.22 1.4,-0.45 0.92,-0.5 1.38,-1.4 1.38,-2.69 0,-1.3 -0.46,-2.2 -1.38,-2.69 -0.43,-0.24 -0.9,-0.4 -1.39,-0.46 -0.49,-0.07 -1.37,-0.1 -2.63,-0.1l-8.37 0 0 6.51zm29.25 5.54l0 4.99 12.88 0c0.37,0 0.66,-0.08 0.86,-0.25 0.2,-0.17 0.36,-0.46 0.48,-0.9l0.52 0 0 5.99 -0.52 0c-0.11,-0.42 -0.27,-0.72 -0.47,-0.89 -0.21,-0.17 -0.5,-0.26 -0.87,-0.26l-18.91 0 0 -0.52c0.42,-0.11 0.72,-0.27 0.89,-0.47 0.17,-0.21 0.26,-0.5 0.26,-0.87l0 -16.62c0,-0.38 -0.09,-0.66 -0.25,-0.86 -0.17,-0.19 -0.46,-0.36 -0.9,-0.49l0 -0.52 18.37 0c0.38,0 0.68,-0.09 0.87,-0.25 0.21,-0.17 0.37,-0.46 0.48,-0.9l0.48 0 0 5.99 -0.48 0c-0.12,-0.44 -0.28,-0.74 -0.48,-0.91 -0.2,-0.17 -0.5,-0.25 -0.88,-0.25l-12.34 0 0 4.47 7.65 0c0.37,0 0.66,-0.09 0.86,-0.25 0.2,-0.17 0.37,-0.46 0.5,-0.9l0.48 0 0 5.84 -0.48 0c-0.12,-0.43 -0.28,-0.73 -0.48,-0.9 -0.2,-0.17 -0.5,-0.25 -0.88,-0.25l-7.65 0zm23.88 4.99l11.4 0c0.39,0 0.68,-0.08 0.87,-0.25 0.19,-0.17 0.36,-0.46 0.49,-0.9l0.48 0 0 5.99 -0.48 0c-0.12,-0.43 -0.28,-0.73 -0.48,-0.9 -0.2,-0.17 -0.49,-0.25 -0.88,-0.25l-17.43 0 0 -0.52c0.42,-0.11 0.72,-0.27 0.89,-0.47 0.17,-0.21 0.26,-0.5 0.26,-0.87l0 -16.62c0,-0.38 -0.09,-0.66 -0.25,-0.86 -0.17,-0.19 -0.46,-0.36 -0.9,-0.49l0 -0.52 7.18 0 0 0.52c-0.43,0.12 -0.73,0.28 -0.9,0.48 -0.17,0.2 -0.25,0.48 -0.25,0.86l0 14.81zm21.37 -14.81l0 16.62c0,0.37 0.09,0.66 0.25,0.86 0.17,0.2 0.46,0.37 0.9,0.5l0 0.52 -7.18 0 0 -0.52c0.42,-0.11 0.72,-0.27 0.89,-0.47 0.17,-0.21 0.26,-0.5 0.26,-0.87l0 -16.62c0,-0.38 -0.09,-0.66 -0.25,-0.86 -0.17,-0.19 -0.46,-0.36 -0.9,-0.49l0 -0.52 7.18 0 0 0.52c-0.43,0.12 -0.73,0.28 -0.9,0.48 -0.17,0.2 -0.25,0.49 -0.25,0.86zm20.16 13.4l-9.37 0 -1.06 2.21c-0.25,0.53 -0.38,0.96 -0.38,1.25 0,0.58 0.39,0.96 1.17,1.11l0 0.52 -7.48 0 0 -0.52c0.46,-0.07 0.8,-0.21 1.02,-0.42 0.23,-0.21 0.49,-0.61 0.79,-1.22l7.43 -15.04c0.28,-0.56 0.42,-1.06 0.42,-1.49 0,-0.5 -0.33,-0.88 -1.02,-1.16l0 -0.52 7.91 0 0 0.52c-0.66,0.27 -1,0.68 -1,1.23 0,0.4 0.15,0.89 0.45,1.47l7.71 14.58c0.42,0.79 0.76,1.31 1,1.54 0.24,0.24 0.61,0.4 1.11,0.5l0 0.52 -8.3 0 0 -0.52c0.79,-0.13 1.19,-0.5 1.19,-1.1 0,-0.37 -0.16,-0.84 -0.46,-1.4l-1.13 -2.08zm-1.48 -2.87l-3.33 -6.54 -3.17 6.54 6.5 0zm17.46 -5.45l0 11.53c0,0.37 0.09,0.66 0.26,0.87 0.17,0.21 0.47,0.37 0.89,0.49l0 0.52 -6.74 0 0 -0.52c0.42,-0.11 0.72,-0.27 0.89,-0.47 0.17,-0.21 0.26,-0.5 0.26,-0.87l0 -16.62c0,-0.38 -0.09,-0.66 -0.25,-0.86 -0.17,-0.19 -0.46,-0.36 -0.9,-0.49l0 -0.52 7.81 0 0 0.52c-0.53,0.13 -0.8,0.37 -0.8,0.71 0,0.29 0.19,0.63 0.58,1.02l10.94 10.82 0 -11.2c0,-0.38 -0.09,-0.66 -0.25,-0.86 -0.17,-0.21 -0.46,-0.37 -0.9,-0.48l0 -0.52 6.74 0 0 0.52c-0.43,0.12 -0.73,0.28 -0.9,0.48 -0.17,0.2 -0.25,0.49 -0.25,0.86l0 16.62c0,0.37 0.09,0.66 0.25,0.86 0.17,0.2 0.46,0.37 0.9,0.5l0 0.52 -7.28 0 0 -0.52c0.53,-0.11 0.8,-0.33 0.8,-0.66 0,-0.17 -0.07,-0.35 -0.22,-0.53 -0.15,-0.18 -0.48,-0.53 -1,-1.06l-10.84 -10.64zm33.33 -3.26l0 14.79c0,0.37 0.09,0.66 0.25,0.86 0.17,0.2 0.47,0.37 0.9,0.5l0 0.52 -7.18 0 0 -0.52c0.42,-0.11 0.72,-0.27 0.89,-0.47 0.17,-0.21 0.26,-0.5 0.26,-0.87l0 -14.8 -6 0c-0.39,0 -0.68,0.09 -0.88,0.25 -0.21,0.17 -0.36,0.47 -0.48,0.9l-0.48 0 0 -5.99 0.48 0c0.11,0.42 0.27,0.72 0.47,0.89 0.2,0.17 0.5,0.26 0.88,0.26l16.9 0c0.38,0 0.68,-0.09 0.88,-0.25 0.2,-0.17 0.36,-0.46 0.48,-0.9l0.48 0 0 5.99 -0.48 0c-0.12,-0.43 -0.28,-0.73 -0.48,-0.9 -0.2,-0.17 -0.49,-0.25 -0.88,-0.25l-6 0zm20.83 14.75l0 -21c0,-0.37 -0.09,-0.65 -0.25,-0.84 -0.17,-0.19 -0.46,-0.35 -0.9,-0.47l0 -0.59 7.74 0 0 0.59c-0.43,0.11 -0.73,0.26 -0.9,0.47 -0.17,0.2 -0.25,0.48 -0.25,0.84l0 21c0,0.38 0.09,0.66 0.26,0.86 0.17,0.2 0.47,0.35 0.89,0.46l0 0.6 -7.74 0 0 -0.6c0.43,-0.12 0.73,-0.28 0.9,-0.47 0.17,-0.19 0.25,-0.48 0.25,-0.86zm16.18 -11.49l0 11.53c0,0.37 0.09,0.66 0.26,0.87 0.17,0.21 0.47,0.37 0.89,0.49l0 0.52 -6.74 0 0 -0.52c0.42,-0.11 0.72,-0.27 0.89,-0.47 0.17,-0.21 0.26,-0.5 0.26,-0.87l0 -16.62c0,-0.38 -0.09,-0.66 -0.25,-0.86 -0.17,-0.19 -0.46,-0.36 -0.9,-0.49l0 -0.52 7.81 0 0 0.52c-0.53,0.13 -0.8,0.37 -0.8,0.71 0,0.29 0.19,0.63 0.58,1.02l10.94 10.82 0 -11.2c0,-0.38 -0.09,-0.66 -0.25,-0.86 -0.17,-0.21 -0.46,-0.37 -0.9,-0.48l0 -0.52 6.74 0 0 0.52c-0.43,0.12 -0.73,0.28 -0.9,0.48 -0.17,0.2 -0.25,0.49 -0.25,0.86l0 16.62c0,0.37 0.09,0.66 0.25,0.86 0.17,0.2 0.46,0.37 0.9,0.5l0 0.52 -7.28 0 0 -0.52c0.53,-0.11 0.8,-0.33 0.8,-0.66 0,-0.17 -0.07,-0.35 -0.22,-0.53 -0.15,-0.18 -0.48,-0.53 -1,-1.06l-10.84 -10.64zm23.25 11.54l0 -16.62c0,-0.38 -0.09,-0.66 -0.25,-0.86 -0.17,-0.19 -0.46,-0.36 -0.9,-0.49l0 -0.52 11.93 0c2.49,0 4.44,0.31 5.87,0.92 2.01,0.87 3.45,2.32 4.34,4.33 0.61,1.4 0.92,3.05 0.92,4.93 0,3.48 -1.04,6.12 -3.11,7.91 -0.93,0.8 -2.03,1.38 -3.3,1.74 -1.27,0.35 -2.84,0.53 -4.73,0.53l-11.93 0 0 -0.52c0.42,-0.11 0.72,-0.27 0.89,-0.47 0.17,-0.21 0.26,-0.5 0.26,-0.87zm4.87 -1.82l5.2 0c2.39,0 4.12,-0.55 5.2,-1.64 1.13,-1.14 1.69,-2.76 1.69,-4.86 0,-2.1 -0.56,-3.72 -1.69,-4.86 -0.56,-0.57 -1.25,-0.99 -2.07,-1.25 -0.83,-0.26 -1.87,-0.39 -3.13,-0.39l-5.2 0 0 12.99zm41.48 -14.81l0 10.77c0,2.46 -0.48,4.27 -1.45,5.42 -1.56,1.83 -4.51,2.74 -8.83,2.74 -2.9,0 -5.24,-0.44 -7.02,-1.33 -1.28,-0.64 -2.16,-1.56 -2.64,-2.74 -0.43,-1.09 -0.65,-2.46 -0.65,-4.09l0 -10.77c0,-0.38 -0.09,-0.66 -0.25,-0.86 -0.17,-0.19 -0.47,-0.36 -0.9,-0.49l0 -0.52 7.18 0 0 0.52c-0.44,0.12 -0.74,0.28 -0.9,0.48 -0.17,0.2 -0.25,0.48 -0.25,0.86l0 9.78c0,1.14 0.1,2.01 0.3,2.62 0.2,0.6 0.55,1.1 1.04,1.49 0.99,0.79 2.43,1.18 4.3,1.18 1.87,0 3.31,-0.39 4.3,-1.18 0.48,-0.39 0.82,-0.89 1.01,-1.49 0.19,-0.61 0.29,-1.48 0.29,-2.62l0 -9.78c0,-0.38 -0.08,-0.66 -0.24,-0.86 -0.16,-0.19 -0.46,-0.36 -0.91,-0.49l0 -0.52 6.77 0 0 0.52c-0.43,0.12 -0.73,0.28 -0.9,0.48 -0.17,0.2 -0.25,0.48 -0.25,0.86zm23.95 -0.03l-2.46 4.74 -0.43 -0.23c0,-0.4 -0.13,-0.71 -0.39,-0.94 -0.69,-0.62 -1.71,-1.13 -3.06,-1.53 -1.35,-0.4 -2.71,-0.6 -4.09,-0.6 -1.17,0 -2.22,0.16 -3.13,0.49 -1.31,0.47 -1.97,1.16 -1.97,2.06 0,0.59 0.32,1.01 0.94,1.26 0.63,0.25 1.85,0.45 3.66,0.6l2.87 0.22c2.51,0.19 4.42,0.68 5.72,1.45 0.73,0.44 1.33,1.02 1.8,1.75 0.59,0.9 0.89,1.93 0.89,3.07 0,2.07 -0.93,3.71 -2.8,4.91 -1.79,1.15 -4.19,1.72 -7.24,1.72 -3.06,0 -6.03,-0.65 -8.89,-1.94 -0.19,-0.09 -0.36,-0.13 -0.49,-0.13 -0.24,0 -0.47,0.15 -0.68,0.44l-0.45 -0.19 2.09 -4.97 0.45 0.18c0,0.07 0,0.12 0,0.15 0,0.32 0.12,0.58 0.37,0.8 0.61,0.53 1.66,0.99 3.14,1.39 1.49,0.39 2.97,0.59 4.42,0.59 1.28,0 2.44,-0.17 3.46,-0.51 1.26,-0.42 1.89,-1.08 1.89,-2 0,-0.74 -0.43,-1.26 -1.31,-1.55 -0.58,-0.19 -1.63,-0.36 -3.15,-0.49l-2.85 -0.24c-1.54,-0.12 -2.72,-0.28 -3.53,-0.48 -0.81,-0.19 -1.52,-0.48 -2.13,-0.85 -0.78,-0.49 -1.38,-1.15 -1.82,-1.98 -0.44,-0.84 -0.66,-1.76 -0.66,-2.75 0,-2.23 0.96,-3.94 2.88,-5.12 1.74,-1.07 3.9,-1.6 6.48,-1.6 1.4,0 2.7,0.15 3.9,0.46 1.21,0.31 2.65,0.86 4.32,1.63 0.5,0.23 0.84,0.35 1.04,0.35 0.2,0 0.45,-0.13 0.75,-0.4l0.43 0.24zm14.9 1.85l0 14.79c0,0.37 0.09,0.66 0.25,0.86 0.17,0.2 0.47,0.37 0.9,0.5l0 0.52 -7.18 0 0 -0.52c0.42,-0.11 0.72,-0.27 0.89,-0.47 0.17,-0.21 0.26,-0.5 0.26,-0.87l0 -14.8 -6 0c-0.39,0 -0.68,0.09 -0.88,0.25 -0.21,0.17 -0.36,0.47 -0.48,0.9l-0.48 0 0 -5.99 0.48 0c0.11,0.42 0.27,0.72 0.47,0.89 0.2,0.17 0.5,0.26 0.88,0.26l16.9 0c0.38,0 0.68,-0.09 0.88,-0.25 0.2,-0.17 0.36,-0.46 0.48,-0.9l0.48 0 0 5.99 -0.48 0c-0.12,-0.43 -0.28,-0.73 -0.48,-0.9 -0.2,-0.17 -0.49,-0.25 -0.88,-0.25l-6 0zm15.96 8.3l0 6.49c0,0.37 0.09,0.66 0.25,0.86 0.17,0.2 0.46,0.37 0.9,0.5l0 0.52 -7.18 0 0 -0.52c0.42,-0.11 0.72,-0.27 0.89,-0.47 0.17,-0.21 0.26,-0.5 0.26,-0.87l0 -16.62c0,-0.38 -0.09,-0.66 -0.25,-0.86 -0.17,-0.19 -0.46,-0.36 -0.9,-0.49l0 -0.52 13.35 0c1.73,0 3.05,0.09 3.96,0.26 0.91,0.18 1.73,0.5 2.44,0.95 1.47,0.96 2.2,2.52 2.2,4.68 0,1.64 -0.45,2.93 -1.36,3.86 -0.9,0.92 -2.36,1.59 -4.38,2l3.88 5.37c0.71,0.99 1.27,1.67 1.69,2.02 0.42,0.36 0.9,0.58 1.43,0.68l0 0.52 -8.58 0 0 -0.52c0.63,-0.17 0.95,-0.44 0.95,-0.82 0,-0.26 -0.19,-0.67 -0.58,-1.21l-4.09 -5.82 -4.89 0zm0 -3.68l7.37 0c1.12,0 1.95,-0.12 2.48,-0.37 0.75,-0.32 1.13,-0.97 1.13,-1.94 0,-0.86 -0.27,-1.46 -0.79,-1.8 -0.53,-0.34 -1.47,-0.51 -2.82,-0.51l-7.37 0 0 4.61zm25.62 -6.44l0 16.62c0,0.37 0.09,0.66 0.25,0.86 0.17,0.2 0.46,0.37 0.9,0.5l0 0.52 -7.18 0 0 -0.52c0.42,-0.11 0.72,-0.27 0.89,-0.47 0.17,-0.21 0.26,-0.5 0.26,-0.87l0 -16.62c0,-0.38 -0.09,-0.66 -0.25,-0.86 -0.17,-0.19 -0.46,-0.36 -0.9,-0.49l0 -0.52 7.18 0 0 0.52c-0.43,0.12 -0.73,0.28 -0.9,0.48 -0.17,0.2 -0.25,0.49 -0.25,0.86zm20.16 13.4l-9.37 0 -1.06 2.21c-0.25,0.53 -0.38,0.96 -0.38,1.25 0,0.58 0.39,0.96 1.17,1.11l0 0.52 -7.48 0 0 -0.52c0.46,-0.07 0.8,-0.21 1.02,-0.42 0.23,-0.21 0.49,-0.61 0.79,-1.22l7.43 -15.04c0.28,-0.56 0.42,-1.06 0.42,-1.49 0,-0.5 -0.33,-0.88 -1.02,-1.16l0 -0.52 7.91 0 0 0.52c-0.66,0.27 -1,0.68 -1,1.23 0,0.4 0.15,0.89 0.45,1.47l7.71 14.58c0.42,0.79 0.76,1.31 1,1.54 0.24,0.24 0.61,0.4 1.11,0.5l0 0.52 -8.3 0 0 -0.52c0.79,-0.13 1.19,-0.5 1.19,-1.1 0,-0.37 -0.16,-0.84 -0.46,-1.4l-1.13 -2.08zm-1.48 -2.87l-3.33 -6.54 -3.17 6.54 6.5 0zm17.91 4.28l11.4 0c0.39,0 0.68,-0.08 0.87,-0.25 0.19,-0.17 0.36,-0.46 0.49,-0.9l0.48 0 0 5.99 -0.48 0c-0.12,-0.43 -0.28,-0.73 -0.48,-0.9 -0.2,-0.17 -0.49,-0.25 -0.88,-0.25l-17.43 0 0 -0.52c0.42,-0.11 0.72,-0.27 0.89,-0.47 0.17,-0.21 0.26,-0.5 0.26,-0.87l0 -16.62c0,-0.38 -0.09,-0.66 -0.25,-0.86 -0.17,-0.19 -0.46,-0.36 -0.9,-0.49l0 -0.52 7.18 0 0 0.52c-0.43,0.12 -0.73,0.28 -0.9,0.48 -0.17,0.2 -0.25,0.48 -0.25,0.86l0 14.81zm48.17 -19.05l-2.96 5.84 -0.51 -0.29c0.01,-0.12 0.02,-0.22 0.02,-0.29 0,-0.41 -0.35,-0.86 -1.05,-1.33 -2.16,-1.5 -4.69,-2.25 -7.6,-2.25 -1.28,0 -2.42,0.15 -3.41,0.47 -0.71,0.25 -1.29,0.61 -1.74,1.1 -0.44,0.48 -0.66,1.01 -0.66,1.58 0,0.94 0.56,1.58 1.69,1.91 0.58,0.17 1.83,0.35 3.75,0.55l2.85 0.29c1.69,0.18 3.07,0.43 4.12,0.74 1.05,0.32 1.97,0.76 2.78,1.33 0.82,0.6 1.48,1.38 1.95,2.34 0.48,0.97 0.72,2.01 0.72,3.11 0,1.74 -0.56,3.3 -1.69,4.66 -1.02,1.23 -2.6,2.15 -4.74,2.74 -1.6,0.45 -3.31,0.68 -5.14,0.68 -3.28,0 -6.52,-0.79 -9.72,-2.36 -0.68,-0.32 -1.08,-0.47 -1.22,-0.47 -0.15,0 -0.4,0.14 -0.74,0.4l-0.53 -0.27 2.69 -6.08 0.53 0.25c0,0.11 0,0.19 0,0.24 0,0.55 0.26,1.05 0.78,1.51 0.79,0.7 2.01,1.31 3.65,1.82 1.65,0.51 3.21,0.76 4.69,0.76 1.61,0 2.99,-0.27 4.12,-0.82 0.63,-0.3 1.13,-0.71 1.51,-1.21 0.38,-0.5 0.56,-1.03 0.56,-1.58 0,-0.82 -0.44,-1.41 -1.33,-1.77 -0.62,-0.24 -1.87,-0.46 -3.75,-0.67l-2.8 -0.29c-1.87,-0.2 -3.21,-0.38 -3.98,-0.56 -0.78,-0.17 -1.55,-0.46 -2.33,-0.85 -1.1,-0.55 -1.97,-1.36 -2.6,-2.46 -0.57,-0.99 -0.86,-2.12 -0.86,-3.39 0,-2.1 0.72,-3.84 2.16,-5.21 1.89,-1.81 4.73,-2.72 8.52,-2.72 1.58,0 3.06,0.16 4.43,0.48 1.37,0.32 3.08,0.91 5.13,1.77 0.7,0.28 1.13,0.42 1.29,0.42 0.25,0 0.55,-0.14 0.89,-0.42l0.51 0.27zm14.73 1.94c3.23,0 5.92,0.82 8.08,2.47 2.58,1.99 3.87,4.76 3.87,8.31 0,3.34 -1.29,6 -3.87,7.99 -2.13,1.65 -4.81,2.47 -8.04,2.47 -3.24,0 -5.92,-0.82 -8.05,-2.47 -2.59,-1.99 -3.89,-4.71 -3.89,-8.15 0,-3.48 1.3,-6.2 3.89,-8.15 2.15,-1.61 4.81,-2.44 8.01,-2.47zm0.02 3.87c-2.1,0 -3.81,0.67 -5.14,2.02 -1.22,1.26 -1.84,2.84 -1.84,4.74 0,1.88 0.61,3.46 1.84,4.72 1.32,1.36 3.04,2.03 5.15,2.03 2.1,0 3.81,-0.68 5.13,-2.03 1.22,-1.25 1.84,-2.79 1.84,-4.63 0,-2 -0.61,-3.61 -1.84,-4.83 -1.33,-1.32 -3.05,-1.99 -5.15,-2.02zm21.08 13.25l11.4 0c0.39,0 0.68,-0.08 0.87,-0.25 0.19,-0.17 0.36,-0.46 0.49,-0.9l0.48 0 0 5.99 -0.48 0c-0.12,-0.43 -0.28,-0.73 -0.48,-0.9 -0.2,-0.17 -0.49,-0.25 -0.88,-0.25l-17.43 0 0 -0.52c0.42,-0.11 0.72,-0.27 0.89,-0.47 0.17,-0.21 0.26,-0.5 0.26,-0.87l0 -16.62c0,-0.38 -0.09,-0.66 -0.25,-0.86 -0.17,-0.19 -0.46,-0.36 -0.9,-0.49l0 -0.52 7.18 0 0 0.52c-0.43,0.12 -0.73,0.28 -0.9,0.48 -0.17,0.2 -0.25,0.48 -0.25,0.86l0 14.81zm36.66 -14.81l0 10.77c0,2.46 -0.48,4.27 -1.45,5.42 -1.56,1.83 -4.51,2.74 -8.83,2.74 -2.9,0 -5.24,-0.44 -7.02,-1.33 -1.28,-0.64 -2.16,-1.56 -2.64,-2.74 -0.43,-1.09 -0.65,-2.46 -0.65,-4.09l0 -10.77c0,-0.38 -0.09,-0.66 -0.25,-0.86 -0.17,-0.19 -0.47,-0.36 -0.9,-0.49l0 -0.52 7.18 0 0 0.52c-0.44,0.12 -0.74,0.28 -0.9,0.48 -0.17,0.2 -0.25,0.48 -0.25,0.86l0 9.78c0,1.14 0.1,2.01 0.3,2.62 0.2,0.6 0.55,1.1 1.04,1.49 0.99,0.79 2.43,1.18 4.3,1.18 1.87,0 3.31,-0.39 4.3,-1.18 0.48,-0.39 0.82,-0.89 1.01,-1.49 0.19,-0.61 0.29,-1.48 0.29,-2.62l0 -9.78c0,-0.38 -0.08,-0.66 -0.24,-0.86 -0.16,-0.19 -0.46,-0.36 -0.91,-0.49l0 -0.52 6.77 0 0 0.52c-0.43,0.12 -0.73,0.28 -0.9,0.48 -0.17,0.2 -0.25,0.48 -0.25,0.86zm15.61 1.82l0 14.79c0,0.37 0.09,0.66 0.25,0.86 0.17,0.2 0.47,0.37 0.9,0.5l0 0.52 -7.18 0 0 -0.52c0.42,-0.11 0.72,-0.27 0.89,-0.47 0.17,-0.21 0.26,-0.5 0.26,-0.87l0 -14.8 -6 0c-0.39,0 -0.68,0.09 -0.88,0.25 -0.21,0.17 -0.36,0.47 -0.48,0.9l-0.48 0 0 -5.99 0.48 0c0.11,0.42 0.27,0.72 0.47,0.89 0.2,0.17 0.5,0.26 0.88,0.26l16.9 0c0.38,0 0.68,-0.09 0.88,-0.25 0.2,-0.17 0.36,-0.46 0.48,-0.9l0.48 0 0 5.99 -0.48 0c-0.12,-0.43 -0.28,-0.73 -0.48,-0.9 -0.2,-0.17 -0.49,-0.25 -0.88,-0.25l-6 0zm15.96 -1.82l0 16.62c0,0.37 0.09,0.66 0.25,0.86 0.17,0.2 0.46,0.37 0.9,0.5l0 0.52 -7.18 0 0 -0.52c0.42,-0.11 0.72,-0.27 0.89,-0.47 0.17,-0.21 0.26,-0.5 0.26,-0.87l0 -16.62c0,-0.38 -0.09,-0.66 -0.25,-0.86 -0.17,-0.19 -0.46,-0.36 -0.9,-0.49l0 -0.52 7.18 0 0 0.52c-0.43,0.12 -0.73,0.28 -0.9,0.48 -0.17,0.2 -0.25,0.49 -0.25,0.86zm16.2 -2.31c3.23,0 5.92,0.82 8.08,2.47 2.58,1.99 3.87,4.76 3.87,8.31 0,3.34 -1.29,6 -3.87,7.99 -2.13,1.65 -4.81,2.47 -8.04,2.47 -3.24,0 -5.92,-0.82 -8.05,-2.47 -2.59,-1.99 -3.89,-4.71 -3.89,-8.15 0,-3.48 1.3,-6.2 3.89,-8.15 2.15,-1.61 4.81,-2.44 8.01,-2.47zm0.02 3.87c-2.1,0 -3.81,0.67 -5.14,2.02 -1.22,1.26 -1.84,2.84 -1.84,4.74 0,1.88 0.61,3.46 1.84,4.72 1.32,1.36 3.04,2.03 5.15,2.03 2.1,0 3.81,-0.68 5.13,-2.03 1.22,-1.25 1.84,-2.79 1.84,-4.63 0,-2 -0.61,-3.61 -1.84,-4.83 -1.33,-1.32 -3.05,-1.99 -5.15,-2.02zm20.64 3.52l0 11.53c0,0.37 0.09,0.66 0.26,0.87 0.17,0.21 0.47,0.37 0.89,0.49l0 0.52 -6.74 0 0 -0.52c0.42,-0.11 0.72,-0.27 0.89,-0.47 0.17,-0.21 0.26,-0.5 0.26,-0.87l0 -16.62c0,-0.38 -0.09,-0.66 -0.25,-0.86 -0.17,-0.19 -0.46,-0.36 -0.9,-0.49l0 -0.52 7.81 0 0 0.52c-0.53,0.13 -0.8,0.37 -0.8,0.71 0,0.29 0.19,0.63 0.58,1.02l10.94 10.82 0 -11.2c0,-0.38 -0.09,-0.66 -0.25,-0.86 -0.17,-0.21 -0.46,-0.37 -0.9,-0.48l0 -0.52 6.74 0 0 0.52c-0.43,0.12 -0.73,0.28 -0.9,0.48 -0.17,0.2 -0.25,0.49 -0.25,0.86l0 16.62c0,0.37 0.09,0.66 0.25,0.86 0.17,0.2 0.46,0.37 0.9,0.5l0 0.52 -7.28 0 0 -0.52c0.53,-0.11 0.8,-0.33 0.8,-0.66 0,-0.17 -0.07,-0.35 -0.22,-0.53 -0.15,-0.18 -0.48,-0.53 -1,-1.06l-10.84 -10.64zm41.67 -5.11l-2.46 4.74 -0.43 -0.23c0,-0.4 -0.13,-0.71 -0.39,-0.94 -0.69,-0.62 -1.71,-1.13 -3.06,-1.53 -1.35,-0.4 -2.71,-0.6 -4.09,-0.6 -1.17,0 -2.22,0.16 -3.13,0.49 -1.31,0.47 -1.97,1.16 -1.97,2.06 0,0.59 0.32,1.01 0.94,1.26 0.63,0.25 1.85,0.45 3.66,0.6l2.87 0.22c2.51,0.19 4.42,0.68 5.72,1.45 0.73,0.44 1.33,1.02 1.8,1.75 0.59,0.9 0.89,1.93 0.89,3.07 0,2.07 -0.93,3.71 -2.8,4.91 -1.79,1.15 -4.19,1.72 -7.24,1.72 -3.06,0 -6.03,-0.65 -8.89,-1.94 -0.19,-0.09 -0.36,-0.13 -0.49,-0.13 -0.24,0 -0.47,0.15 -0.68,0.44l-0.45 -0.19 2.09 -4.97 0.45 0.18c0,0.07 0,0.12 0,0.15 0,0.32 0.12,0.58 0.37,0.8 0.61,0.53 1.66,0.99 3.14,1.39 1.49,0.39 2.97,0.59 4.42,0.59 1.28,0 2.44,-0.17 3.46,-0.51 1.26,-0.42 1.89,-1.08 1.89,-2 0,-0.74 -0.43,-1.26 -1.31,-1.55 -0.58,-0.19 -1.63,-0.36 -3.15,-0.49l-2.85 -0.24c-1.54,-0.12 -2.72,-0.28 -3.53,-0.48 -0.81,-0.19 -1.52,-0.48 -2.13,-0.85 -0.78,-0.49 -1.38,-1.15 -1.82,-1.98 -0.44,-0.84 -0.66,-1.76 -0.66,-2.75 0,-2.23 0.96,-3.94 2.88,-5.12 1.74,-1.07 3.9,-1.6 6.48,-1.6 1.4,0 2.7,0.15 3.9,0.46 1.21,0.31 2.65,0.86 4.32,1.63 0.5,0.23 0.84,0.35 1.04,0.35 0.2,0 0.45,-0.13 0.75,-0.4l0.43 0.24zm19.67 8.44l0 8.18c0,0.37 0.09,0.65 0.26,0.84 0.17,0.2 0.47,0.35 0.89,0.46l0 0.6 -7.74 0 0 -0.6c0.43,-0.12 0.73,-0.28 0.9,-0.47 0.17,-0.19 0.25,-0.47 0.25,-0.84l0 -21c0,-0.38 -0.09,-0.66 -0.25,-0.86 -0.17,-0.19 -0.46,-0.35 -0.9,-0.47l0 -0.59 15.49 0c1.81,0 3.24,0.12 4.3,0.37 1.06,0.24 2,0.66 2.81,1.25 0.84,0.61 1.49,1.43 1.97,2.43 0.47,1.04 0.71,2.15 0.71,3.31 0,1.67 -0.45,3.14 -1.35,4.4 -0.78,1.07 -1.8,1.84 -3.08,2.3 -1.28,0.45 -3.06,0.68 -5.35,0.68l-8.91 0zm0 -4.09l8.28 0c1.65,0 2.81,-0.17 3.47,-0.53 0.43,-0.23 0.77,-0.6 1.03,-1.1 0.26,-0.5 0.39,-1.05 0.39,-1.66 0,-0.59 -0.13,-1.13 -0.39,-1.64 -0.26,-0.5 -0.6,-0.87 -1.03,-1.1 -0.65,-0.35 -1.81,-0.53 -3.47,-0.53l-8.28 0 0 6.55zm31.92 7.69l4.91 -10.71c0.29,-0.62 0.43,-1.08 0.43,-1.38 0,-0.61 -0.39,-1.02 -1.18,-1.25l0 -0.52 7.88 0 0 0.52c-0.48,0.16 -0.84,0.35 -1.05,0.58 -0.22,0.23 -0.5,0.7 -0.83,1.41l-7.12 14.99c-0.25,0.53 -0.38,0.94 -0.38,1.22 0,0.61 0.4,0.99 1.2,1.15l0 0.48 -7.98 0 0 -0.48c0.79,-0.16 1.18,-0.54 1.18,-1.15 0,-0.27 -0.12,-0.68 -0.38,-1.22l-7.12 -14.99c-0.34,-0.73 -0.61,-1.2 -0.83,-1.43 -0.21,-0.22 -0.56,-0.42 -1.06,-0.57l0 -0.52 8.17 0 0 0.52c-0.78,0.24 -1.17,0.66 -1.17,1.25 0,0.27 0.16,0.73 0.46,1.38l4.87 10.71zm24.95 -10.18l0 14.79c0,0.37 0.09,0.66 0.25,0.86 0.17,0.2 0.47,0.37 0.9,0.5l0 0.52 -7.18 0 0 -0.52c0.42,-0.11 0.72,-0.27 0.89,-0.47 0.17,-0.21 0.26,-0.5 0.26,-0.87l0 -14.8 -6 0c-0.39,0 -0.68,0.09 -0.88,0.25 -0.21,0.17 -0.36,0.47 -0.48,0.9l-0.48 0 0 -5.99 0.48 0c0.11,0.42 0.27,0.72 0.47,0.89 0.2,0.17 0.5,0.26 0.88,0.26l16.9 0c0.38,0 0.68,-0.09 0.88,-0.25 0.2,-0.17 0.36,-0.46 0.48,-0.9l0.48 0 0 5.99 -0.48 0c-0.12,-0.43 -0.28,-0.73 -0.48,-0.9 -0.2,-0.17 -0.49,-0.25 -0.88,-0.25l-6 0zm13.84 11.16c0.84,0 1.54,0.29 2.11,0.87 0.58,0.58 0.86,1.29 0.86,2.13 0,0.81 -0.29,1.51 -0.88,2.09 -0.59,0.58 -1.28,0.87 -2.1,0.87 -0.83,0 -1.53,-0.29 -2.11,-0.88 -0.58,-0.59 -0.87,-1.29 -0.87,-2.12 0,-0.81 0.29,-1.5 0.86,-2.08 0.58,-0.58 1.28,-0.87 2.11,-0.88zm23.84 1.41l15.23 0c0.38,0 0.66,-0.09 0.86,-0.25 0.19,-0.17 0.35,-0.46 0.47,-0.9l0.6 0 0 6.4 -0.6 0c-0.12,-0.43 -0.28,-0.73 -0.47,-0.9 -0.19,-0.17 -0.48,-0.25 -0.86,-0.25l-21.82 0 0 -0.6c0.43,-0.12 0.73,-0.28 0.9,-0.47 0.17,-0.19 0.25,-0.48 0.25,-0.86l0 -20.98c0,-0.38 -0.09,-0.66 -0.25,-0.86 -0.17,-0.19 -0.46,-0.35 -0.9,-0.47l0 -0.59 7.74 0 0 0.59c-0.43,0.11 -0.73,0.26 -0.9,0.47 -0.17,0.2 -0.25,0.48 -0.25,0.86l0 18.81z"/>
    <path class="fil0" d="M749.72 264.82l0 14.79c0,0.37 0.09,0.66 0.25,0.86 0.17,0.2 0.47,0.37 0.9,0.5l0 0.52 -7.18 0 0 -0.52c0.42,-0.11 0.72,-0.27 0.89,-0.47 0.17,-0.21 0.26,-0.5 0.26,-0.87l0 -14.8 -6 0c-0.39,0 -0.68,0.09 -0.88,0.25 -0.21,0.17 -0.36,0.47 -0.48,0.9l-0.48 0 0 -5.99 0.48 0c0.11,0.42 0.27,0.72 0.47,0.89 0.2,0.17 0.5,0.26 0.88,0.26l16.9 0c0.38,0 0.68,-0.09 0.88,-0.25 0.2,-0.17 0.36,-0.46 0.48,-0.9l0.48 0 0 5.99 -0.48 0c-0.12,-0.43 -0.28,-0.73 -0.48,-0.9 -0.2,-0.17 -0.49,-0.25 -0.88,-0.25l-6 0zm11.09 14.8l0 -16.62c0,-0.38 -0.09,-0.66 -0.25,-0.86 -0.17,-0.19 -0.46,-0.36 -0.9,-0.49l0 -0.52 11.93 0c2.49,0 4.44,0.31 5.87,0.92 2.01,0.87 3.45,2.32 4.34,4.33 0.61,1.4 0.92,3.05 0.92,4.93 0,3.48 -1.04,6.12 -3.11,7.91 -0.93,0.8 -2.03,1.38 -3.3,1.74 -1.27,0.35 -2.84,0.53 -4.73,0.53l-11.93 0 0 -0.52c0.42,-0.11 0.72,-0.27 0.89,-0.47 0.17,-0.21 0.26,-0.5 0.26,-0.87zm4.87 -1.82l5.2 0c2.39,0 4.12,-0.55 5.2,-1.64 1.13,-1.14 1.69,-2.76 1.69,-4.86 0,-2.1 -0.56,-3.72 -1.69,-4.86 -0.56,-0.57 -1.25,-0.99 -2.07,-1.25 -0.83,-0.26 -1.87,-0.39 -3.13,-0.39l-5.2 0 0 12.99zm24.07 -1.82c0.84,0 1.54,0.29 2.11,0.87 0.58,0.58 0.86,1.29 0.86,2.13 0,0.81 -0.29,1.51 -0.88,2.09 -0.59,0.58 -1.28,0.87 -2.1,0.87 -0.83,0 -1.53,-0.29 -2.11,-0.88 -0.58,-0.59 -0.87,-1.29 -0.87,-2.12 0,-0.81 0.29,-1.5 0.86,-2.08 0.58,-0.58 1.28,-0.87 2.11,-0.88z"/>
   </g>
   <g>
    <path class="fil1" d="M406.45 82.7c-24.13,-37.31 -17.58,-61.98 -1.43,-82.7 -7.39,32.83 53.41,74.14 70.31,103.38 33.99,58.81 -6.71,125.06 -56.56,132.87 26.07,-28.67 32.81,-59.48 23.23,-92.11 -8.43,-28.73 -20.79,-38.61 -35.56,-61.44z"/>
    <path class="fil2" d="M376.85 43.38c1.57,16.28 6.96,41.86 22.1,59.64 17.37,20.39 38.19,49.61 13.5,85.54 6.09,-34.75 -20.23,-53.56 -33.7,-81.91 -20.4,6.03 -35.27,24.62 -35.27,46.62 0,26.89 22.19,48.68 49.56,48.68 12.13,0 23.23,-4.28 31.84,-11.38 -2.3,13.4 -8.48,25.85 -18.02,37.66l0.01 0.05 -0.46 0.5 -0 0 -1.29 1.42 -10.19 11.21 -9.81 0.29 -4.87 -11.61c-4.94,-0.79 -9.72,-2.02 -14.3,-3.66l-9.21 7.44 -14.96 -8.11 1.55 -11.9c-4.25,-3.37 -8.14,-7.16 -11.6,-11.32l-10.97 1.6 -8.75 -14.6 6.89 -8.81c-2.07,-5.4 -3.55,-11.08 -4.36,-16.97l-9.65 -4.02 0 -17.02 10.31 -3.96c0.99,-5.15 2.49,-10.11 4.46,-14.85l-6.54 -8.4 8.38 -14.82 11.58 1.72c3.47,-3.95 7.34,-7.55 11.55,-10.75l-1.51 -11.35 14.71 -8.56 9.72 7.81c1.26,-0.42 2.53,-0.81 3.81,-1.17 -0.55,-10.15 0.95,-21.63 5.51,-35.02zm-6.96 77.55c2.49,25.77 38.03,41.72 25.06,72.67 3.15,-15.97 -32.56,-39.18 -25.06,-72.67z"/>
   </g>
   <path class="fil3" d="M148.45 307.7c0.69,0 1.21,-0.17 1.57,-0.5 0.36,-0.33 0.53,-0.78 0.53,-1.35 0,-0.57 -0.18,-1.02 -0.53,-1.36 -0.36,-0.34 -0.88,-0.51 -1.57,-0.51l-3.08 0 0 3.71 3.08 0zm-3.08 -8.58l0 3.22 2.12 0c0.62,0 1.08,-0.15 1.39,-0.45 0.31,-0.3 0.46,-0.69 0.46,-1.18 0,-0.48 -0.15,-0.87 -0.46,-1.16 -0.31,-0.29 -0.77,-0.43 -1.39,-0.43l-2.12 0zm4.87 3.75c0.71,0.23 1.26,0.61 1.64,1.13 0.39,0.53 0.58,1.16 0.58,1.91 0,0.51 -0.09,0.97 -0.27,1.39 -0.18,0.42 -0.44,0.79 -0.78,1.1 -0.34,0.31 -0.75,0.55 -1.22,0.72 -0.48,0.18 -1.01,0.26 -1.6,0.26l-5.12 0 0 -11.95 4.18 0c0.54,0 1.03,0.08 1.48,0.24 0.44,0.16 0.82,0.38 1.13,0.66 0.31,0.28 0.56,0.62 0.72,1.01 0.17,0.39 0.25,0.81 0.25,1.29 0,0.93 -0.34,1.68 -1.01,2.25zm17.5 1.68c0,0.8 -0.12,1.51 -0.37,2.13 -0.25,0.62 -0.59,1.15 -1.02,1.59 -0.43,0.43 -0.95,0.76 -1.55,0.99 -0.6,0.22 -1.25,0.33 -1.95,0.33 -0.71,0 -1.37,-0.11 -1.97,-0.33 -0.6,-0.22 -1.12,-0.55 -1.56,-0.99 -0.43,-0.43 -0.78,-0.96 -1.02,-1.59 -0.25,-0.62 -0.37,-1.33 -0.37,-2.13l0 -7.12 1.92 0 0 7.24c0,0.53 0.08,0.99 0.24,1.39 0.16,0.39 0.37,0.72 0.64,0.98 0.27,0.26 0.59,0.46 0.95,0.59 0.36,0.13 0.75,0.2 1.18,0.2 0.41,0 0.8,-0.07 1.16,-0.2 0.36,-0.13 0.68,-0.33 0.95,-0.59 0.27,-0.26 0.48,-0.59 0.63,-0.98 0.15,-0.39 0.23,-0.85 0.23,-1.39l0 -7.24 1.92 0 0 7.12zm8.17 4.84l-1.92 0 0 -11.95 1.92 0 0 11.95zm8.3 -1.72l5.47 0 0 1.72 -7.39 0 0 -11.95 1.92 0 0 10.23zm12.7 -8.48l0 8.48 1.81 0c0.7,0 1.33,-0.11 1.89,-0.32 0.56,-0.21 1.04,-0.5 1.43,-0.88 0.39,-0.38 0.69,-0.83 0.9,-1.36 0.21,-0.53 0.32,-1.09 0.32,-1.71 0,-0.64 -0.11,-1.22 -0.32,-1.74 -0.21,-0.52 -0.51,-0.96 -0.9,-1.33 -0.39,-0.37 -0.87,-0.65 -1.43,-0.85 -0.56,-0.2 -1.19,-0.3 -1.89,-0.3l-1.81 0zm1.83 -1.76c0.99,0 1.88,0.15 2.68,0.43 0.8,0.29 1.48,0.7 2.05,1.22 0.57,0.53 1,1.15 1.31,1.88 0.31,0.73 0.46,1.54 0.46,2.42 0,0.87 -0.15,1.67 -0.46,2.4 -0.31,0.73 -0.75,1.36 -1.31,1.9 -0.57,0.54 -1.25,0.95 -2.05,1.25 -0.8,0.3 -1.69,0.44 -2.68,0.44l-3.75 0 0 -11.95 3.75 0zm14.07 11.95l-1.92 0 0 -11.95 1.92 0 0 11.95zm16.23 -11.95l0 12.15 -0.65 0 -7.28 -8.28 0 8.08 -1.92 0 0 -12.15 0.67 0 7.26 8.26 0 -8.06 1.92 0zm11.97 -0.2c1.06,0 2.01,0.22 2.84,0.65 0.83,0.43 1.53,1.05 2.1,1.85l-1.39 1.14c-0.42,-0.59 -0.93,-1.05 -1.51,-1.39 -0.59,-0.33 -1.27,-0.5 -2.06,-0.5 -0.64,0 -1.22,0.11 -1.75,0.33 -0.52,0.22 -0.98,0.53 -1.36,0.92 -0.38,0.39 -0.67,0.86 -0.88,1.39 -0.21,0.54 -0.31,1.12 -0.31,1.75 0,0.64 0.11,1.23 0.32,1.78 0.21,0.55 0.51,1.02 0.91,1.42 0.39,0.4 0.86,0.71 1.39,0.93 0.54,0.22 1.13,0.33 1.78,0.33 0.81,0 1.51,-0.17 2.12,-0.5 0.6,-0.33 1.09,-0.77 1.45,-1.31l0 -1.29 -3.68 0 0 -1.7 5.6 0 0 3.37c-0.25,0.47 -0.57,0.9 -0.96,1.29 -0.39,0.39 -0.82,0.72 -1.3,1 -0.48,0.28 -1,0.49 -1.56,0.64 -0.56,0.15 -1.15,0.23 -1.77,0.23 -0.89,0 -1.72,-0.16 -2.49,-0.47 -0.77,-0.31 -1.43,-0.75 -1.99,-1.3 -0.56,-0.56 -1.01,-1.21 -1.33,-1.96 -0.33,-0.75 -0.49,-1.57 -0.49,-2.44 0,-0.87 0.16,-1.68 0.49,-2.44 0.33,-0.75 0.77,-1.41 1.34,-1.97 0.57,-0.56 1.23,-0.99 2,-1.3 0.77,-0.31 1.59,-0.47 2.47,-0.47zm20.86 3.55l-1.99 4.96 3.97 0 -1.97 -4.96zm2.68 6.61l-5.38 0 -0.85 1.99 -2.05 0 5.27 -12.15 0.65 0 5.27 12.15 -2.06 0 -0.85 -1.99zm21.93 -10.16c0.88,0 1.65,0.2 2.32,0.61 0.66,0.4 1.18,0.91 1.54,1.53l-1.34 1.03c-0.31,-0.46 -0.68,-0.81 -1.1,-1.07 -0.42,-0.25 -0.89,-0.38 -1.41,-0.38 -0.48,0 -0.9,0.12 -1.27,0.35 -0.36,0.24 -0.54,0.6 -0.54,1.1 0,0.23 0.04,0.43 0.13,0.59 0.08,0.16 0.2,0.31 0.34,0.43 0.15,0.13 0.32,0.24 0.53,0.35 0.21,0.11 0.43,0.22 0.67,0.33l1.34 0.62c0.45,0.21 0.85,0.42 1.2,0.65 0.36,0.23 0.66,0.48 0.9,0.75 0.25,0.27 0.43,0.57 0.56,0.9 0.13,0.33 0.19,0.69 0.19,1.1 0,0.53 -0.1,1.01 -0.31,1.44 -0.21,0.43 -0.49,0.79 -0.84,1.09 -0.36,0.3 -0.78,0.53 -1.27,0.69 -0.49,0.16 -1.02,0.24 -1.59,0.24 -1,0 -1.89,-0.23 -2.66,-0.7 -0.77,-0.46 -1.39,-1.1 -1.85,-1.89l1.36 -1.03c0.17,0.25 0.36,0.49 0.57,0.72 0.21,0.23 0.44,0.43 0.7,0.61 0.25,0.18 0.53,0.31 0.84,0.42 0.31,0.1 0.65,0.15 1.02,0.15 0.62,0 1.11,-0.15 1.49,-0.44 0.38,-0.3 0.57,-0.7 0.57,-1.22 0,-0.23 -0.04,-0.43 -0.13,-0.61 -0.08,-0.18 -0.21,-0.33 -0.36,-0.46 -0.16,-0.13 -0.34,-0.26 -0.55,-0.37 -0.21,-0.11 -0.45,-0.23 -0.72,-0.35l-1.32 -0.62c-0.39,-0.18 -0.75,-0.37 -1.09,-0.58 -0.34,-0.21 -0.63,-0.44 -0.89,-0.71 -0.25,-0.27 -0.45,-0.56 -0.6,-0.9 -0.14,-0.33 -0.22,-0.71 -0.22,-1.13 0,-0.5 0.1,-0.94 0.3,-1.34 0.2,-0.4 0.47,-0.74 0.82,-1.02 0.34,-0.28 0.74,-0.5 1.2,-0.65 0.45,-0.15 0.94,-0.23 1.46,-0.23zm18.66 1.92l-4.04 0 0 10.23 -1.92 0 0 -10.23 -4.02 0 0 -1.72 9.98 0 0 1.72zm7.08 3.91l2.41 0c0.69,0 1.21,-0.18 1.58,-0.54 0.36,-0.36 0.54,-0.83 0.54,-1.41 0,-0.58 -0.18,-1.05 -0.54,-1.42 -0.36,-0.37 -0.89,-0.55 -1.58,-0.55l-2.41 0 0 3.93zm5.6 6.32l-3.41 -4.62 -2.19 0 0 4.62 -1.92 0 0 -11.95 4.36 0c0.6,0 1.16,0.09 1.66,0.26 0.5,0.18 0.93,0.43 1.29,0.75 0.36,0.33 0.63,0.71 0.82,1.16 0.19,0.45 0.29,0.94 0.29,1.49 0,0.8 -0.2,1.49 -0.61,2.07 -0.41,0.59 -0.97,1.02 -1.69,1.29l3.59 4.93 -2.19 0zm12.84 -10.39c-0.62,0 -1.19,0.11 -1.71,0.33 -0.53,0.22 -0.98,0.53 -1.36,0.91 -0.38,0.39 -0.68,0.85 -0.9,1.39 -0.22,0.54 -0.33,1.13 -0.33,1.76 0,0.64 0.11,1.23 0.33,1.77 0.22,0.54 0.52,1.01 0.9,1.4 0.38,0.39 0.83,0.7 1.36,0.92 0.52,0.22 1.1,0.33 1.71,0.33 0.62,0 1.18,-0.11 1.7,-0.33 0.52,-0.22 0.97,-0.53 1.36,-0.92 0.39,-0.39 0.69,-0.86 0.9,-1.4 0.22,-0.54 0.33,-1.13 0.33,-1.77 0,-0.63 -0.11,-1.21 -0.33,-1.75 -0.22,-0.54 -0.52,-1 -0.9,-1.39 -0.39,-0.39 -0.84,-0.7 -1.36,-0.92 -0.52,-0.22 -1.09,-0.33 -1.7,-0.33zm-0.02 -1.76c0.87,0 1.68,0.16 2.44,0.47 0.76,0.31 1.42,0.75 1.99,1.3 0.57,0.56 1.02,1.21 1.35,1.97 0.33,0.75 0.5,1.57 0.5,2.44 0,0.88 -0.17,1.7 -0.5,2.45 -0.33,0.75 -0.78,1.41 -1.35,1.96 -0.57,0.55 -1.23,0.98 -1.99,1.29 -0.76,0.31 -1.58,0.47 -2.44,0.47 -0.87,0 -1.69,-0.16 -2.45,-0.47 -0.77,-0.31 -1.43,-0.75 -1.99,-1.3 -0.56,-0.56 -1.01,-1.21 -1.33,-1.96 -0.33,-0.75 -0.49,-1.57 -0.49,-2.44 0,-0.87 0.16,-1.68 0.49,-2.44 0.33,-0.75 0.77,-1.41 1.34,-1.97 0.57,-0.56 1.23,-0.99 1.99,-1.3 0.76,-0.31 1.58,-0.47 2.45,-0.47zm21.81 0.2l0 12.15 -0.65 0 -7.28 -8.28 0 8.08 -1.92 0 0 -12.15 0.67 0 7.26 8.26 0 -8.06 1.92 0zm11.97 -0.2c1.06,0 2.01,0.22 2.84,0.65 0.83,0.43 1.53,1.05 2.1,1.85l-1.39 1.14c-0.42,-0.59 -0.93,-1.05 -1.51,-1.39 -0.59,-0.33 -1.27,-0.5 -2.06,-0.5 -0.64,0 -1.22,0.11 -1.75,0.33 -0.52,0.22 -0.98,0.53 -1.36,0.92 -0.38,0.39 -0.67,0.86 -0.88,1.39 -0.21,0.54 -0.31,1.12 -0.31,1.75 0,0.64 0.11,1.23 0.32,1.78 0.21,0.55 0.51,1.02 0.91,1.42 0.39,0.4 0.86,0.71 1.39,0.93 0.54,0.22 1.13,0.33 1.78,0.33 0.81,0 1.51,-0.17 2.12,-0.5 0.6,-0.33 1.09,-0.77 1.45,-1.31l0 -1.29 -3.68 0 0 -1.7 5.6 0 0 3.37c-0.25,0.47 -0.57,0.9 -0.96,1.29 -0.39,0.39 -0.82,0.72 -1.3,1 -0.48,0.28 -1,0.49 -1.56,0.64 -0.56,0.15 -1.15,0.23 -1.77,0.23 -0.89,0 -1.72,-0.16 -2.49,-0.47 -0.77,-0.31 -1.43,-0.75 -1.99,-1.3 -0.56,-0.56 -1.01,-1.21 -1.33,-1.96 -0.33,-0.75 -0.49,-1.57 -0.49,-2.44 0,-0.87 0.16,-1.68 0.49,-2.44 0.33,-0.75 0.77,-1.41 1.34,-1.97 0.57,-0.56 1.23,-0.99 2,-1.3 0.77,-0.31 1.59,-0.47 2.47,-0.47zm19.16 1.92l-5.94 0 0 3.06 4.47 0 0 1.67 -4.47 0 0 3.79 6.16 0 0 1.72 -8.08 0 0 -11.95 7.86 0 0 1.72zm7.73 3.91l2.41 0c0.69,0 1.21,-0.18 1.58,-0.54 0.36,-0.36 0.54,-0.83 0.54,-1.41 0,-0.58 -0.18,-1.05 -0.54,-1.42 -0.36,-0.37 -0.89,-0.55 -1.58,-0.55l-2.41 0 0 3.93zm5.6 6.32l-3.41 -4.62 -2.19 0 0 4.62 -1.92 0 0 -11.95 4.36 0c0.6,0 1.16,0.09 1.66,0.26 0.5,0.18 0.93,0.43 1.29,0.75 0.36,0.33 0.63,0.71 0.82,1.16 0.19,0.45 0.29,0.94 0.29,1.49 0,0.8 -0.2,1.49 -0.61,2.07 -0.41,0.59 -0.97,1.02 -1.69,1.29l3.59 4.93 -2.19 0zm22.39 -1.68c0.69,0 1.21,-0.17 1.57,-0.5 0.36,-0.33 0.53,-0.78 0.53,-1.35 0,-0.57 -0.18,-1.02 -0.53,-1.36 -0.36,-0.34 -0.88,-0.51 -1.57,-0.51l-3.08 0 0 3.71 3.08 0zm-3.08 -8.58l0 3.22 2.12 0c0.62,0 1.08,-0.15 1.39,-0.45 0.31,-0.3 0.46,-0.69 0.46,-1.18 0,-0.48 -0.15,-0.87 -0.46,-1.16 -0.31,-0.29 -0.77,-0.43 -1.39,-0.43l-2.12 0zm4.87 3.75c0.71,0.23 1.26,0.61 1.64,1.13 0.39,0.53 0.58,1.16 0.58,1.91 0,0.51 -0.09,0.97 -0.27,1.39 -0.18,0.42 -0.44,0.79 -0.78,1.1 -0.34,0.31 -0.75,0.55 -1.22,0.72 -0.48,0.18 -1.01,0.26 -1.6,0.26l-5.12 0 0 -11.95 4.18 0c0.54,0 1.03,0.08 1.48,0.24 0.44,0.16 0.82,0.38 1.13,0.66 0.31,0.28 0.56,0.62 0.72,1.01 0.17,0.39 0.25,0.81 0.25,1.29 0,0.93 -0.34,1.68 -1.01,2.25zm17.5 1.68c0,0.8 -0.12,1.51 -0.37,2.13 -0.25,0.62 -0.59,1.15 -1.02,1.59 -0.43,0.43 -0.95,0.76 -1.55,0.99 -0.6,0.22 -1.25,0.33 -1.95,0.33 -0.71,0 -1.37,-0.11 -1.97,-0.33 -0.6,-0.22 -1.12,-0.55 -1.56,-0.99 -0.43,-0.43 -0.78,-0.96 -1.02,-1.59 -0.25,-0.62 -0.37,-1.33 -0.37,-2.13l0 -7.12 1.92 0 0 7.24c0,0.53 0.08,0.99 0.24,1.39 0.16,0.39 0.37,0.72 0.64,0.98 0.27,0.26 0.59,0.46 0.95,0.59 0.36,0.13 0.75,0.2 1.18,0.2 0.41,0 0.8,-0.07 1.16,-0.2 0.36,-0.13 0.68,-0.33 0.95,-0.59 0.27,-0.26 0.48,-0.59 0.63,-0.98 0.15,-0.39 0.23,-0.85 0.23,-1.39l0 -7.24 1.92 0 0 7.12zm9.85 -7.32c0.88,0 1.65,0.2 2.32,0.61 0.66,0.4 1.18,0.91 1.54,1.53l-1.34 1.03c-0.31,-0.46 -0.68,-0.81 -1.1,-1.07 -0.42,-0.25 -0.89,-0.38 -1.41,-0.38 -0.48,0 -0.9,0.12 -1.27,0.35 -0.36,0.24 -0.54,0.6 -0.54,1.1 0,0.23 0.04,0.43 0.13,0.59 0.08,0.16 0.2,0.31 0.34,0.43 0.15,0.13 0.32,0.24 0.53,0.35 0.21,0.11 0.43,0.22 0.67,0.33l1.34 0.62c0.45,0.21 0.85,0.42 1.2,0.65 0.36,0.23 0.66,0.48 0.9,0.75 0.25,0.27 0.43,0.57 0.56,0.9 0.13,0.33 0.19,0.69 0.19,1.1 0,0.53 -0.1,1.01 -0.31,1.44 -0.21,0.43 -0.49,0.79 -0.84,1.09 -0.36,0.3 -0.78,0.53 -1.27,0.69 -0.49,0.16 -1.02,0.24 -1.59,0.24 -1,0 -1.89,-0.23 -2.66,-0.7 -0.77,-0.46 -1.39,-1.1 -1.85,-1.89l1.36 -1.03c0.17,0.25 0.36,0.49 0.57,0.72 0.21,0.23 0.44,0.43 0.7,0.61 0.25,0.18 0.53,0.31 0.84,0.42 0.31,0.1 0.65,0.15 1.02,0.15 0.62,0 1.11,-0.15 1.49,-0.44 0.38,-0.3 0.57,-0.7 0.57,-1.22 0,-0.23 -0.04,-0.43 -0.13,-0.61 -0.08,-0.18 -0.21,-0.33 -0.36,-0.46 -0.16,-0.13 -0.34,-0.26 -0.55,-0.37 -0.21,-0.11 -0.45,-0.23 -0.72,-0.35l-1.32 -0.62c-0.39,-0.18 -0.75,-0.37 -1.09,-0.58 -0.34,-0.21 -0.63,-0.44 -0.89,-0.71 -0.25,-0.27 -0.45,-0.56 -0.6,-0.9 -0.14,-0.33 -0.22,-0.71 -0.22,-1.13 0,-0.5 0.1,-0.94 0.3,-1.34 0.2,-0.4 0.47,-0.74 0.82,-1.02 0.34,-0.28 0.74,-0.5 1.2,-0.65 0.45,-0.15 0.94,-0.23 1.46,-0.23zm11.81 12.15l-1.92 0 0 -11.95 1.92 0 0 11.95zm16.23 -11.95l0 12.15 -0.65 0 -7.28 -8.28 0 8.08 -1.92 0 0 -12.15 0.67 0 7.26 8.26 0 -8.06 1.92 0zm14.26 1.72l-5.94 0 0 3.06 4.47 0 0 1.67 -4.47 0 0 3.79 6.16 0 0 1.72 -8.08 0 0 -11.95 7.86 0 0 1.72zm9.42 -1.92c0.88,0 1.65,0.2 2.32,0.61 0.66,0.4 1.18,0.91 1.54,1.53l-1.34 1.03c-0.31,-0.46 -0.68,-0.81 -1.1,-1.07 -0.42,-0.25 -0.89,-0.38 -1.41,-0.38 -0.48,0 -0.9,0.12 -1.27,0.35 -0.36,0.24 -0.54,0.6 -0.54,1.1 0,0.23 0.04,0.43 0.13,0.59 0.08,0.16 0.2,0.31 0.34,0.43 0.15,0.13 0.32,0.24 0.53,0.35 0.21,0.11 0.43,0.22 0.67,0.33l1.34 0.62c0.45,0.21 0.85,0.42 1.2,0.65 0.36,0.23 0.66,0.48 0.9,0.75 0.25,0.27 0.43,0.57 0.56,0.9 0.13,0.33 0.19,0.69 0.19,1.1 0,0.53 -0.1,1.01 -0.31,1.44 -0.21,0.43 -0.49,0.79 -0.84,1.09 -0.36,0.3 -0.78,0.53 -1.27,0.69 -0.49,0.16 -1.02,0.24 -1.59,0.24 -1,0 -1.89,-0.23 -2.66,-0.7 -0.77,-0.46 -1.39,-1.1 -1.85,-1.89l1.36 -1.03c0.17,0.25 0.36,0.49 0.57,0.72 0.21,0.23 0.44,0.43 0.7,0.61 0.25,0.18 0.53,0.31 0.84,0.42 0.31,0.1 0.65,0.15 1.02,0.15 0.62,0 1.11,-0.15 1.49,-0.44 0.38,-0.3 0.57,-0.7 0.57,-1.22 0,-0.23 -0.04,-0.43 -0.13,-0.61 -0.08,-0.18 -0.21,-0.33 -0.36,-0.46 -0.16,-0.13 -0.34,-0.26 -0.55,-0.37 -0.21,-0.11 -0.45,-0.23 -0.72,-0.35l-1.32 -0.62c-0.39,-0.18 -0.75,-0.37 -1.09,-0.58 -0.34,-0.21 -0.63,-0.44 -0.89,-0.71 -0.25,-0.27 -0.45,-0.56 -0.6,-0.9 -0.14,-0.33 -0.22,-0.71 -0.22,-1.13 0,-0.5 0.1,-0.94 0.3,-1.34 0.2,-0.4 0.47,-0.74 0.82,-1.02 0.34,-0.28 0.74,-0.5 1.2,-0.65 0.45,-0.15 0.94,-0.23 1.46,-0.23zm13.49 0c0.88,0 1.65,0.2 2.32,0.61 0.66,0.4 1.18,0.91 1.54,1.53l-1.34 1.03c-0.31,-0.46 -0.68,-0.81 -1.1,-1.07 -0.42,-0.25 -0.89,-0.38 -1.41,-0.38 -0.48,0 -0.9,0.12 -1.27,0.35 -0.36,0.24 -0.54,0.6 -0.54,1.1 0,0.23 0.04,0.43 0.13,0.59 0.08,0.16 0.2,0.31 0.34,0.43 0.15,0.13 0.32,0.24 0.53,0.35 0.21,0.11 0.43,0.22 0.67,0.33l1.34 0.62c0.45,0.21 0.85,0.42 1.2,0.65 0.36,0.23 0.66,0.48 0.9,0.75 0.25,0.27 0.43,0.57 0.56,0.9 0.13,0.33 0.19,0.69 0.19,1.1 0,0.53 -0.1,1.01 -0.31,1.44 -0.21,0.43 -0.49,0.79 -0.84,1.09 -0.36,0.3 -0.78,0.53 -1.27,0.69 -0.49,0.16 -1.02,0.24 -1.59,0.24 -1,0 -1.89,-0.23 -2.66,-0.7 -0.77,-0.46 -1.39,-1.1 -1.85,-1.89l1.36 -1.03c0.17,0.25 0.36,0.49 0.57,0.72 0.21,0.23 0.44,0.43 0.7,0.61 0.25,0.18 0.53,0.31 0.84,0.42 0.31,0.1 0.65,0.15 1.02,0.15 0.62,0 1.11,-0.15 1.49,-0.44 0.38,-0.3 0.57,-0.7 0.57,-1.22 0,-0.23 -0.04,-0.43 -0.13,-0.61 -0.08,-0.18 -0.21,-0.33 -0.36,-0.46 -0.16,-0.13 -0.34,-0.26 -0.55,-0.37 -0.21,-0.11 -0.45,-0.23 -0.72,-0.35l-1.32 -0.62c-0.39,-0.18 -0.75,-0.37 -1.09,-0.58 -0.34,-0.21 -0.63,-0.44 -0.89,-0.71 -0.25,-0.27 -0.45,-0.56 -0.6,-0.9 -0.14,-0.33 -0.22,-0.71 -0.22,-1.13 0,-0.5 0.1,-0.94 0.3,-1.34 0.2,-0.4 0.47,-0.74 0.82,-1.02 0.34,-0.28 0.74,-0.5 1.2,-0.65 0.45,-0.15 0.94,-0.23 1.46,-0.23zm28.8 1.92l-4.04 0 0 10.23 -1.92 0 0 -10.23 -4.02 0 0 -1.72 9.98 0 0 1.72zm10.72 -0.16c-0.62,0 -1.19,0.11 -1.71,0.33 -0.53,0.22 -0.98,0.53 -1.36,0.91 -0.38,0.39 -0.68,0.85 -0.9,1.39 -0.22,0.54 -0.33,1.13 -0.33,1.76 0,0.64 0.11,1.23 0.33,1.77 0.22,0.54 0.52,1.01 0.9,1.4 0.38,0.39 0.83,0.7 1.36,0.92 0.52,0.22 1.1,0.33 1.71,0.33 0.62,0 1.18,-0.11 1.7,-0.33 0.52,-0.22 0.97,-0.53 1.36,-0.92 0.39,-0.39 0.69,-0.86 0.9,-1.4 0.22,-0.54 0.33,-1.13 0.33,-1.77 0,-0.63 -0.11,-1.21 -0.33,-1.75 -0.22,-0.54 -0.52,-1 -0.9,-1.39 -0.39,-0.39 -0.84,-0.7 -1.36,-0.92 -0.52,-0.22 -1.09,-0.33 -1.7,-0.33zm-0.02 -1.76c0.87,0 1.68,0.16 2.44,0.47 0.76,0.31 1.42,0.75 1.99,1.3 0.57,0.56 1.02,1.21 1.35,1.97 0.33,0.75 0.5,1.57 0.5,2.44 0,0.88 -0.17,1.7 -0.5,2.45 -0.33,0.75 -0.78,1.41 -1.35,1.96 -0.57,0.55 -1.23,0.98 -1.99,1.29 -0.76,0.31 -1.58,0.47 -2.44,0.47 -0.87,0 -1.69,-0.16 -2.45,-0.47 -0.77,-0.31 -1.43,-0.75 -1.99,-1.3 -0.56,-0.56 -1.01,-1.21 -1.33,-1.96 -0.33,-0.75 -0.49,-1.57 -0.49,-2.44 0,-0.87 0.16,-1.68 0.49,-2.44 0.33,-0.75 0.77,-1.41 1.34,-1.97 0.57,-0.56 1.23,-0.99 1.99,-1.3 0.76,-0.31 1.58,-0.47 2.45,-0.47zm17.53 0c1.06,0 2.01,0.22 2.84,0.65 0.83,0.43 1.53,1.05 2.1,1.85l-1.39 1.14c-0.42,-0.59 -0.93,-1.05 -1.51,-1.39 -0.59,-0.33 -1.27,-0.5 -2.06,-0.5 -0.64,0 -1.22,0.11 -1.75,0.33 -0.52,0.22 -0.98,0.53 -1.36,0.92 -0.38,0.39 -0.67,0.86 -0.88,1.39 -0.21,0.54 -0.31,1.12 -0.31,1.75 0,0.64 0.11,1.23 0.32,1.78 0.21,0.55 0.51,1.02 0.91,1.42 0.39,0.4 0.86,0.71 1.39,0.93 0.54,0.22 1.13,0.33 1.78,0.33 0.81,0 1.51,-0.17 2.12,-0.5 0.6,-0.33 1.09,-0.77 1.45,-1.31l0 -1.29 -3.68 0 0 -1.7 5.6 0 0 3.37c-0.25,0.47 -0.57,0.9 -0.96,1.29 -0.39,0.39 -0.82,0.72 -1.3,1 -0.48,0.28 -1,0.49 -1.56,0.64 -0.56,0.15 -1.15,0.23 -1.77,0.23 -0.89,0 -1.72,-0.16 -2.49,-0.47 -0.77,-0.31 -1.43,-0.75 -1.99,-1.3 -0.56,-0.56 -1.01,-1.21 -1.33,-1.96 -0.33,-0.75 -0.49,-1.57 -0.49,-2.44 0,-0.87 0.16,-1.68 0.49,-2.44 0.33,-0.75 0.77,-1.41 1.34,-1.97 0.57,-0.56 1.23,-0.99 2,-1.3 0.77,-0.31 1.59,-0.47 2.47,-0.47zm19.16 1.92l-5.94 0 0 3.06 4.47 0 0 1.67 -4.47 0 0 3.79 6.16 0 0 1.72 -8.08 0 0 -11.95 7.86 0 0 1.72zm14.58 0l-4.04 0 0 10.23 -1.92 0 0 -10.23 -4.02 0 0 -1.72 9.98 0 0 1.72zm15.02 10.23l-1.92 0 0 -5.47 -6.01 0 0 5.47 -1.92 0 0 -11.95 1.92 0 0 4.76 6.01 0 0 -4.76 1.92 0 0 11.95zm14.26 -10.23l-5.94 0 0 3.06 4.47 0 0 1.67 -4.47 0 0 3.79 6.16 0 0 1.72 -8.08 0 0 -11.95 7.86 0 0 1.72zm7.73 3.91l2.41 0c0.69,0 1.21,-0.18 1.58,-0.54 0.36,-0.36 0.54,-0.83 0.54,-1.41 0,-0.58 -0.18,-1.05 -0.54,-1.42 -0.36,-0.37 -0.89,-0.55 -1.58,-0.55l-2.41 0 0 3.93zm5.6 6.32l-3.41 -4.62 -2.19 0 0 4.62 -1.92 0 0 -11.95 4.36 0c0.6,0 1.16,0.09 1.66,0.26 0.5,0.18 0.93,0.43 1.29,0.75 0.36,0.33 0.63,0.71 0.82,1.16 0.19,0.45 0.29,0.94 0.29,1.49 0,0.8 -0.2,1.49 -0.61,2.07 -0.41,0.59 -0.97,1.02 -1.69,1.29l3.59 4.93 -2.19 0z"/>
  </g>
 </g>
</svg>
