<?xml version="1.0" encoding="utf-8"?>
<!-- Generator: Adobe Illustrator 24.0.1, SVG Export Plug-In . SVG Version: 6.00 Build 0)  -->
<svg version="1.1" id="Layer_1" xmlns="http://www.w3.org/2000/svg" xmlns:xlink="http://www.w3.org/1999/xlink" x="0px" y="0px"
	 viewBox="0 0 391 71.9" style="enable-background:new 0 0 391 71.9;" xml:space="preserve">
<style type="text/css">
	.st0{clip-path:url(#SVGID_2_);}
	.st1{fill:#FFFFFF;}
	.st2{fill:#1D3A69;}
	.st3{fill:url(#SVGID_3_);}
	.st4{fill:url(#SVGID_4_);}
	.st5{fill:url(#SVGID_5_);}
	.st6{fill:url(#SVGID_6_);}
	.st7{fill:url(#SVGID_7_);}
	.st8{fill:url(#SVGID_8_);}
</style>
<g>
	<g>
		<path class="st2" d="M48,27.7c1.5,0.4,2.9,0.8,4.3,1.5c1.6,0.8,5.1,3.1,5.1,8.2c0,0.7-0.1,2.6-1,4.4c-1.2,2.8-4.4,6.5-11.6,6.5
			c-1.7,0-7.8-0.1-10.8-5.5c-1.1-2-1.2-3.7-1.3-4.6l1.3-0.3c0.1,0.3,0.7,1.6,1.5,2.7c1,1.4,3.8,4.5,8.9,4.5c2,0,4.3-0.6,5.8-1.9
			c0.7-0.6,2.2-2.4,2.2-5.1c0-1.8-0.7-3.5-2.2-4.7c-1.1-0.9-2.7-1.3-5.5-2.1L43.6,31c-0.3,0-2.8-0.6-4.5-1.5c-1.6-0.8-4.9-3-4.9-8.1
			c0-0.7,0.1-2.4,0.9-4.2c1.1-2.2,4.1-5.8,10.4-5.8c4.9,0,8.9,2.4,10.4,7.3c0.1,0.4,0.2,1,0.4,2L55,21.2c-0.8-1.6-3.2-6.4-9-6.4
			c-1.2,0-2.2,0.1-3.3,0.6c-3.4,1.4-3.9,4.3-3.9,5.6c0,0.5,0.1,1.8,0.9,3.1c1.5,2.1,4.6,2.8,6.9,3.3L48,27.7z"/>
		<path class="st2" d="M77,47.3v-2.9c-0.4,0.5-0.9,1.3-2.2,2.3c-1.7,1.2-3.5,1.7-5.6,1.7c-1.2,0-5.5-0.2-7.7-3.8
			c-0.4-0.6-1.1-2.1-1.1-4c0-0.8,0.1-2.6,1.2-4.3c2-3.3,6-4.6,9.8-4.6c2.4,0,5.1,0.5,5.7,0.6c0-1.8,0-3.4-1.1-5.1
			c-1.2-1.8-3.1-2.5-5.2-2.5c-2.4,0-4.6,0.9-6.2,2.5c-0.8,0.9-1.2,1.5-1.5,2l-1.3-0.5c0.2-0.5,0.5-1.8,1.3-3.1
			c1.2-1.9,3.7-4.3,8.8-4.3c0.5,0,1.8,0,3.2,0.4c1.4,0.4,4.7,1.7,5.9,5.7c0.4,1.3,0.4,2.3,0.4,4.9v15H77z M77,35.2
			c-0.7-0.2-2.7-0.7-5-0.7c-1.4,0-2.5,0.2-3,0.4c-2.3,0.8-4,2.8-4,5.2c0.1,3.2,2.6,5.2,5.6,5.2c2.4,0,4.3-1.3,4.9-1.8
			c0.7-0.6,1.2-1,1.4-1.3V35.2z"/>
		<path class="st2" d="M103.4,47.3V33.1c0-3.1,0-4.9-0.7-6.2c-0.2-0.4-0.6-1-1.5-1.6c-1.2-0.8-2.6-0.8-3.1-0.8
			c-3.1,0-5.2,2.1-5.8,2.8c-0.3,0.3-0.5,0.6-0.9,1.4v18.6h-4.5v-25h4.5v3.4c1.1-1.5,3.6-4.5,8.6-4.5c0.8,0,1.6,0.1,2.4,0.3
			c3.3,0.8,4.5,2.9,4.9,4.1c0.4,1.2,0.4,2.8,0.4,4.1v17.6H103.4z"/>
		<path class="st2" d="M128.5,47.3v-2.9c-0.4,0.5-0.9,1.3-2.2,2.3c-1.7,1.2-3.4,1.7-5.6,1.7c-1.2,0-5.5-0.2-7.8-3.8
			c-0.4-0.6-1.1-2.1-1.1-4c0-0.8,0.2-2.6,1.2-4.3c2-3.3,6-4.6,9.8-4.6c2.4,0,5.1,0.5,5.7,0.6c0-1.8,0-3.4-1.1-5.1
			c-1.2-1.8-3.1-2.5-5.2-2.5c-2.4,0-4.6,0.9-6.2,2.5c-0.8,0.9-1.2,1.5-1.5,2l-1.3-0.5c0.2-0.5,0.5-1.8,1.3-3.1
			c1.2-1.9,3.7-4.3,8.8-4.3c0.5,0,1.8,0,3.2,0.4c1.4,0.4,4.7,1.7,5.9,5.7c0.4,1.3,0.4,2.3,0.4,4.9v15H128.5z M128.5,35.2
			c-0.7-0.2-2.7-0.7-5-0.7c-1.4,0-2.5,0.2-3,0.4c-2.3,0.8-4,2.8-4,5.2c0.1,3.2,2.6,5.2,5.6,5.2c2.4,0,4.3-1.3,4.9-1.8
			c0.7-0.6,1.2-1,1.4-1.3V35.2z"/>
		<path class="st2" d="M139.6,25h-3.5v-2.8h3.5v-6.7h4.5v6.7h5.3V25h-5.3v14.4c0,2.9,0,4.3,1.1,5.5c0.9,0.9,2,0.9,2.4,0.9
			c1.4,0,2.6-0.7,3-0.9l0.7,1.2c-0.8,0.7-2.5,2.2-5.4,2.2c-0.6,0-2.1,0-3.6-0.9c-2.8-1.5-2.7-4.1-2.8-6.7V25z"/>
		<path class="st2" d="M171.2,47.3v-16c0-2.1,0.1-4.5-2-5.9c-0.5-0.3-1.5-0.8-3.1-0.8c-3.4,0-5.5,2.4-6.1,3.1
			c-0.4,0.5-0.6,1-0.8,1.2v18.4h-4.5V12.5h4.5l0,13.4c1-1.4,3.7-4.8,8.8-4.8c4.7,0,6.7,2.9,7.2,4.7c0.3,1,0.4,1.7,0.4,3.6v17.8
			H171.2z"/>
		<path class="st2" d="M196.4,47.3v-2.9c-0.4,0.5-0.9,1.3-2.2,2.3c-1.7,1.2-3.5,1.7-5.6,1.7c-1.2,0-5.5-0.2-7.8-3.8
			c-0.4-0.6-1.1-2.1-1.1-4c0-0.8,0.1-2.6,1.2-4.3c2-3.3,6-4.6,9.8-4.6c2.4,0,5.1,0.5,5.7,0.6c0-1.8,0-3.4-1.1-5.1
			c-1.2-1.8-3.1-2.5-5.2-2.5c-2.4,0-4.6,0.9-6.2,2.5c-0.8,0.9-1.2,1.5-1.5,2l-1.3-0.5c0.1-0.5,0.5-1.8,1.3-3.1
			c1.2-1.9,3.7-4.3,8.8-4.3c0.5,0,1.8,0,3.2,0.4c1.4,0.4,4.7,1.7,5.9,5.7c0.4,1.3,0.4,2.3,0.4,4.9v15H196.4z M196.4,35.2
			c-0.7-0.2-2.7-0.7-5-0.7c-1.4,0-2.5,0.2-3,0.4c-2.3,0.8-3.9,2.8-3.9,5.2c0.1,3.2,2.6,5.2,5.6,5.2c2.4,0,4.3-1.3,4.9-1.8
			c0.7-0.6,1.2-1,1.4-1.3V35.2z"/>
		<path class="st2" d="M222.7,47.3V33.1c0-3.1,0-4.9-0.7-6.2c-0.2-0.4-0.6-1-1.5-1.6c-1.2-0.8-2.6-0.8-3.1-0.8
			c-3.1,0-5.2,2.1-5.8,2.8c-0.3,0.3-0.5,0.6-0.9,1.4v18.6h-4.5v-25h4.5v3.4c1.1-1.5,3.6-4.5,8.6-4.5c0.8,0,1.6,0.1,2.4,0.3
			c3.3,0.8,4.5,2.9,4.9,4.1c0.4,1.2,0.4,2.8,0.4,4.1v17.6H222.7z"/>
		<g>
			<g>
				<path class="st2" d="M247.6,46.9V15.7h-10.8v-3.1h26.5v3.1h-10.8v31.2H247.6z"/>
				<path class="st2" d="M262.1,34.6c0,1.3,0.1,2.3,0.5,3.6c1.2,3.9,4.2,6.5,8.3,6.5c1.1,0,4.1-0.3,6.5-2.5c1.2-1,1.8-2.1,2.1-2.6
					l1.2,0.5c-0.3,1-0.6,1.9-1.1,2.8c-1.1,2-4,5.2-9.8,5.2c-2.6,0-4.4-0.7-5.3-1.1c-2.9-1.3-7.1-4.6-7.1-12.2c0-0.9,0-3.2,0.9-5.6
					c1.9-4.9,6.2-7.9,11.5-7.9c1.1,0,3.9,0.1,6.5,1.9c5.2,3.5,4.9,9.9,4.9,11.5H262.1z M276.9,31.9c0-0.5-0.1-1.7-0.6-3.1
					c-1.1-2.8-3.6-4.6-6.6-4.6c-3,0.1-5.5,1.9-6.7,4.6c-0.4,0.8-0.6,1.5-0.8,3.1H276.9z"/>
				<path class="st2" d="M300.2,46.9l-7.3-10l-7.7,10h-4.1l9.8-12.6l-8.9-12.1h5.3l6.2,8.5l6.6-8.5h4l-8.6,11.2l9.9,13.5H300.2z"/>
				<path class="st2" d="M310.1,24.9h-3.4v-2.8h3.4v-6.6h4.5v6.6h5.2v2.8h-5.2v14.2c0,2.9,0,4.3,1.1,5.4c0.9,0.9,2,0.9,2.4,0.9
					c1.4,0,2.6-0.7,3-0.9l0.7,1.2c-0.8,0.7-2.5,2.1-5.4,2.1c-0.6,0-2,0-3.6-0.9c-2.7-1.5-2.6-4-2.7-6.7V24.9z"/>
				<path class="st2" d="M329.7,16c-0.2,0.5-0.9,1.5-2.4,1.5c-1.5,0-2.5-1.1-2.5-2.6c0-1.5,1-2.7,2.6-2.7c1.5,0,2.4,1.1,2.5,2.6
					C330,15,330,15.6,329.7,16z M325.1,46.9V22.2h4.4v24.7H325.1z"/>
				<path class="st2" d="M336.3,46.9V12.6h4.4v34.3H336.3z"/>
				<path class="st2" d="M349.5,34.6c0.1,1.3,0.1,2.3,0.5,3.6c1.2,3.9,4.1,6.5,8.3,6.5c1.1,0,4.1-0.3,6.5-2.5c1.2-1,1.8-2.1,2.1-2.6
					l1.2,0.5c-0.3,1-0.6,1.9-1.1,2.8c-1.1,2-4,5.2-9.8,5.2c-2.6,0-4.4-0.7-5.3-1.1c-2.9-1.3-7.1-4.6-7.1-12.2c0-0.9,0-3.2,0.9-5.6
					c1.9-4.9,6.2-7.9,11.5-7.9c1.1,0,3.9,0.1,6.5,1.9c5.2,3.5,4.9,9.9,4.9,11.5H349.5z M364.4,31.9c-0.1-0.5-0.1-1.7-0.6-3.1
					c-1.1-2.8-3.6-4.6-6.6-4.6c-3,0.1-5.5,1.9-6.7,4.6c-0.4,0.8-0.6,1.5-0.8,3.1H364.4z"/>
				<path class="st2" d="M389.2,28.5c-0.4-0.8-0.8-1.3-1.3-1.8c-0.9-0.9-2.7-2.4-5.8-2.4c-0.4,0-1.2,0-2.1,0.3
					c-1.7,0.4-3.2,1.6-3.2,3.5c0,0.2,0,0.7,0.3,1.3c0.7,1.4,2.3,2.1,5.3,3l1.2,0.3c0.6,0.2,1.2,0.3,1.8,0.6c1.2,0.4,5.7,2,5.7,6.9
					c0,0.8-0.1,2.6-1.4,4.3c-1.3,1.8-3.8,3.6-8.6,3.6c-1.4,0-6.8-0.1-9.2-4.8c-0.5-1-0.7-1.8-0.9-2.9l1.3-0.4
					c0.8,1.3,1.3,1.9,1.8,2.4c1.8,1.7,4.4,2.6,6.8,2.6c2.5,0,5.6-1.1,5.6-4.1c0-0.4-0.1-1.4-0.7-2.3c-1.1-1.5-3.6-2.1-5.2-2.6
					l-1.5-0.4c-0.6-0.2-1.2-0.4-1.8-0.6c-1.2-0.4-5.1-1.8-5-6.3c0-1.1,0.3-2.2,0.8-3.2c1-1.8,3.4-4.2,8.2-4.2c1.1,0,6.4,0.1,8.5,4.4
					c0.4,0.8,0.5,1.7,0.7,2.5L389.2,28.5z"/>
			</g>
		</g>
		<g>
			
				<linearGradient id="SVGID_2_" gradientUnits="userSpaceOnUse" x1="-79.1621" y1="276.28" x2="-66.1663" y2="289.2758" gradientTransform="matrix(1 0 0 1 82.2734 -238.0852)">
				<stop  offset="0" style="stop-color:#1D3A69"/>
				<stop  offset="1" style="stop-color:#4BBCCE"/>
			</linearGradient>
			<path style="fill:url(#SVGID_2_);" d="M3.5,44.7c-2-1.5-3-3.8-3.4-6.1C0,38.1,0,37.6,0,37.2c0-0.9,0.1-1.7,0.3-2.5
				c0.1-0.4,0.2-0.8,0.4-1.2c0.6-1.4,1.5-2.6,2.6-3.6c0,0.3,0,0.5,0,0.8c0,0.7,0.1,1.4,0.2,2c0.4,2,1.4,3.9,2.7,5.4
				c0.4,0.4,0.8,0.8,1.2,1.1c-0.1,0,0.1,0,0,0c0,0,8.1,5.5,8.9,6.2c2.2,2,2.6,4,2.6,6.5c0,1-0.1,1.9-0.4,2.8
				c-0.1,0.3-0.2,0.6-0.3,0.9c-0.6,1.4-1.5,2.6-2.6,3.6c0-0.3,0-0.5,0-0.8c0-0.7-0.1-1.4-0.2-2c-0.4-2-1.3-4-2.7-5.4
				c-1.3-1.2-3.5-2.5-3.5-2.5L3.5,44.7L3.5,44.7z"/>
			
				<linearGradient id="SVGID_3_" gradientUnits="userSpaceOnUse" x1="-79.3961" y1="261.0697" x2="-66.741" y2="273.7249" gradientTransform="matrix(1 0 0 1 82.2734 -238.0852)">
				<stop  offset="5.327789e-07" style="stop-color:#1D3A69"/>
				<stop  offset="1" style="stop-color:#9B86BE"/>
			</linearGradient>
			<path class="st3" d="M3.5,29.7c-2-1.5-3-3.8-3.4-6.1C0,23.1,0,22.7,0,22.2c0-0.8,0.1-1.7,0.3-2.5c0.1-0.4,0.2-0.8,0.4-1.2
				c0.6-1.4,1.5-2.6,2.6-3.6c0,0.3,0,0.5,0,0.8c0,0.7,0.1,1.4,0.2,2c0.4,2,1.4,3.9,2.7,5.4C6.6,23.6,7,24,7.5,24.3c-0.1,0,0.1,0,0,0
				c0,0,8.1,5.5,8.9,6.2c2.2,2,2.6,4,2.6,6.5c0,1-0.1,1.9-0.4,2.8c-0.1,0.3-0.2,0.6-0.3,0.9c-0.6,1.4-1.5,2.6-2.6,3.6
				c0-0.3,0-0.5,0-0.8c0-0.7-0.1-1.4-0.2-2c-0.4-2.1-1.3-4-2.7-5.4c-1.3-1.2-3.5-2.5-3.5-2.5L3.5,29.7L3.5,29.7z"/>
			
				<linearGradient id="SVGID_4_" gradientUnits="userSpaceOnUse" x1="-78.6226" y1="246.8666" x2="-66.5497" y2="258.9395" gradientTransform="matrix(1 0 0 1 82.2734 -238.0852)">
				<stop  offset="1.385225e-07" style="stop-color:#1D3A69"/>
				<stop  offset="1" style="stop-color:#EE7A96"/>
			</linearGradient>
			<path class="st4" d="M3.5,14.7c-2-1.5-3-3.8-3.4-6.1C0,8.1,0,7.7,0,7.2c0-0.9,0.1-1.7,0.3-2.5c0.1-0.4,0.2-0.8,0.4-1.2
				C1.3,2.2,2.2,1,3.4,0c0,0.3,0,0.5,0,0.8c0,0.7,0.1,1.4,0.2,2c0.4,2.1,1.4,3.9,2.7,5.4C6.6,8.6,7,9,7.5,9.3c-0.1,0,0.1,0,0,0
				c0,0,8.1,5.5,8.9,6.2c2.2,2,2.6,4,2.6,6.5c0,1-0.1,1.9-0.4,2.8c-0.1,0.3-0.2,0.6-0.3,0.9c-0.6,1.4-1.5,2.6-2.6,3.6
				c0-0.3,0-0.5,0-0.8c0-0.7-0.1-1.4-0.2-2c-0.4-2-1.3-4-2.7-5.4c-1.3-1.2-3.5-2.5-3.5-2.5L3.5,14.7L3.5,14.7z"/>
		</g>
	</g>
	<g id="Group_3224_1_" transform="translate(-6.916 -83.128)">
		<g id="Group_3223-2_1_">
			<path id="Path_4806_1_" class="st2" d="M134.8,142.3l1.3,6.9c0.1,0.3,0.1,0.6,0.1,0.9c0.1-0.3,0.3-0.5,0.4-0.7
				c0.1-0.2,0.2-0.3,0.3-0.4l4.2-6.6h1.2l-6,9.5c-0.3,0.4-0.6,0.9-0.9,1.3c-0.8,1.2-2.2,1.9-3.6,1.9c-0.2,0-0.5,0-0.7,0l0-0.5
				c0.3,0,0.6,0,0.9-0.1c1.2-0.4,2.3-1.2,2.9-2.3c0.2-0.2,0.3-0.5,0.4-0.7l-1.7-9.1L134.8,142.3z"/>
			<path id="Path_4807_1_" class="st2" d="M146.5,152.1h-1.2l0.3-1.2c-0.6,0.8-1.5,1.3-2.5,1.3c-0.3,0-0.5,0-0.8-0.2
				c-0.9-0.4-1.4-1.3-1.3-2.3c0-0.3,0-0.7,0.1-1c0.2-0.8,0.6-1.6,1.1-2.2c1-1.2,2.5-1.8,4-1.7c0.6,0,1.3,0.1,1.9,0.2L146.5,152.1z
				 M146.8,145.7c-0.3-0.1-0.6-0.1-0.9-0.1c-0.9,0-1.8,0.4-2.5,1.1c-0.8,0.9-1.2,1.9-1.2,3.1c0,0.5,0.2,1,0.6,1.4
				c0.2,0.2,0.5,0.3,0.8,0.3c0.2,0,0.5,0,0.7-0.1c0.4-0.2,0.8-0.5,1.1-0.8c0.2-0.2,0.3-0.3,0.4-0.5L146.8,145.7z"/>
			<path id="Path_4808_1_" class="st2" d="M154.2,146c-0.3-0.1-0.5-0.1-0.8-0.1c-0.3,0-0.5,0-0.7,0.1c-0.5,0.2-0.9,0.5-1.3,0.9
				l-1.2,5.2H149l1.6-7.1h1.2l-0.2,1.1c0.6-0.7,1.5-1.2,2.4-1.3c0.2,0,0.3,0,0.5,0L154.2,146z"/>
			<path id="Path_4809_1_" class="st2" d="M159.3,152.1l1.1-4.6c0.1-0.3,0.1-0.5,0.1-0.8c0-0.6-0.5-1.2-1.1-1.2c0,0-0.1,0-0.1,0
				c-0.8,0.1-1.6,0.5-2.2,1.1l-1.2,5.4h-1.2l1.6-7.1h1.2l-0.2,0.9c0.6-0.7,1.4-1.2,2.4-1.2c0.3,0,0.5,0.1,0.8,0.1
				c0.7,0.2,1.2,0.9,1.2,1.7c0,0.4-0.1,0.7-0.2,1.1l-1,4.5L159.3,152.1z"/>
			<path id="Path_4810_1_" class="st2" d="M168.3,146.8c-0.1-0.2-0.2-0.4-0.3-0.6c-0.4-0.5-1-0.8-1.7-0.7c-1.1,0-1.4,0.7-1.4,1.1
				c0,0.3,0.1,0.6,0.3,0.7c0.3,0.3,0.7,0.5,1.1,0.6c0,0,0.4,0.2,0.7,0.4c0.6,0.4,1,1,1,1.7c0,0.4-0.1,0.7-0.3,1.1
				c-0.6,0.8-1.5,1.3-2.5,1.1c-0.7,0-1.3-0.2-1.9-0.5c-0.3-0.2-0.5-0.4-0.6-0.7c-0.1-0.3-0.2-0.6-0.3-1l0.4-0.1
				c0.1,0.3,0.2,0.5,0.4,0.7c0.6,0.7,1.6,1,2.6,0.7c0.5-0.2,0.9-0.7,0.9-1.2c0-0.8-0.7-1-1.2-1.3c-0.3-0.1-0.6-0.3-0.8-0.5
				c-0.6-0.3-1-1-1-1.7c0-0.6,0.2-1.1,0.7-1.4c0.5-0.4,1.2-0.6,1.8-0.6c0.6,0,1.2,0.2,1.7,0.5c0.2,0.1,0.3,0.3,0.5,0.5
				c0.2,0.3,0.2,0.6,0.3,1L168.3,146.8z"/>
			<path id="Path_4811_1_" class="st2" d="M180.1,142.7c-0.6-0.1-1.1,0.1-1.6,0.5c-0.5,0.5-0.8,1.2-0.9,1.9h1.4l-0.2,0.7h-1.4
				l-1.5,6.4h-1.2l1.5-6.4h-1l0.2-0.7h1c0.1-0.6,0.3-1.2,0.5-1.7c0.4-0.8,1.3-1.2,2.2-1.2c0.3,0,0.7,0.1,1,0.2L180.1,142.7z"/>
			<path id="Path_4812_1_" class="st2" d="M186.9,147.8c0,0.3,0,0.6-0.1,0.9c-0.2,1.5-1.1,2.7-2.4,3.4c-0.6,0.3-1.2,0.4-1.9,0.3
				c-0.4,0-0.9-0.1-1.3-0.2c-1.2-0.4-1.9-1.6-1.8-2.9c0-0.9,0.3-1.8,0.7-2.6c0.4-0.8,1.2-1.4,2-1.7c0.5-0.2,1-0.2,1.6-0.2
				c1.6-0.2,3,1,3.1,2.5C186.9,147.4,186.9,147.6,186.9,147.8z M182.2,145.9c-1,1-1.5,2.3-1.5,3.7c0,1.9,1.2,2.2,2,2.2
				c0.7,0,1.4-0.3,1.9-1c0.6-0.9,1-2,1-3.2c0-0.4,0-0.7-0.2-1c-0.2-0.8-1-1.3-1.8-1.2C183.2,145.4,182.6,145.6,182.2,145.9
				L182.2,145.9z"/>
			<path id="Path_4813_1_" class="st2" d="M193,146c-0.3-0.1-0.5-0.1-0.8-0.1c-0.3,0-0.5,0-0.7,0.1c-0.5,0.2-0.9,0.5-1.3,0.9
				l-1.2,5.2h-1.2l1.6-7.1h1.2l-0.3,1.1c0.6-0.7,1.5-1.2,2.4-1.3c0.2,0,0.3,0,0.5,0L193,146z"/>
			<path id="Path_4814_1_" class="st2" d="M200.7,143.1l-0.5,2h1.4l-0.2,0.7h-1.4l-1,4.3c-0.1,0.2-0.1,0.5-0.1,0.8
				c0,0.4,0.3,0.7,0.7,0.8c0,0,0.1,0,0.1,0c0.3,0,0.6-0.1,0.8-0.3l0.2,0.3c-0.4,0.4-1,0.6-1.6,0.6c-0.7,0.1-1.4-0.4-1.4-1.2
				c0,0,0-0.1,0-0.1c0-0.4,0.1-0.7,0.2-1.1l1-4.1h-1l0.2-0.7h1l0.5-2L200.7,143.1z"/>
			<path id="Path_4815_1_" class="st2" d="M205.7,142.3l-0.8,3.7c0.6-0.7,1.5-1.2,2.4-1.2c0.7,0,1.4,0.3,1.8,0.9
				c0.1,0.3,0.2,0.5,0.2,0.8c0,0.2,0,0.4-0.1,0.7l-1.1,4.9h-1.2l1-4.4c0.1-0.3,0.1-0.7,0.2-1c0-0.6-0.5-1.1-1.1-1.2c0,0-0.1,0-0.1,0
				c-0.8,0.1-1.6,0.5-2.1,1.1l-1.3,5.4h-1.2l2.3-9.8L205.7,142.3z"/>
			<path id="Path_4816_1_" class="st2" d="M211.9,148.6c0,0.3,0,0.5,0,0.8c0,0.3,0,0.7,0.1,1c0.3,0.7,1,1.2,1.8,1.2
				c1.1-0.1,2.1-0.7,2.7-1.6l0.3,0.2c-0.2,0.5-0.5,0.9-0.9,1.3c-0.6,0.6-1.5,0.9-2.4,0.9c-0.5,0-1.1-0.1-1.5-0.3
				c-0.9-0.6-1.4-1.6-1.4-2.7c0-1,0.3-1.9,0.8-2.8c0.7-1.1,1.9-1.8,3.2-1.8c1.4-0.1,2.6,0.9,2.7,2.2c0,0.2,0,0.3,0,0.5
				c0,0.4,0,0.8-0.1,1.2H211.9z M216.1,147.8c0-0.2,0-0.4,0-0.6c0-0.6-0.2-1.1-0.7-1.5c-0.3-0.2-0.6-0.2-0.9-0.2
				c-0.3,0-0.7,0.1-0.9,0.2c-0.8,0.5-1.3,1.3-1.5,2.1L216.1,147.8z"/>
			<path id="Path_4817_1_" class="st2" d="M230.1,142.3l-0.2,0.8h-4.5l-0.8,3.5h4.2l-0.2,0.9h-4.2l-1.1,4.6h-1.3l2.3-9.8
				L230.1,142.3z"/>
			<path id="Path_4818_1_" class="st2" d="M235.1,152.1h-1.2l0.3-1.2c-0.6,0.8-1.5,1.3-2.5,1.3c-0.3,0-0.5,0-0.8-0.2
				c-0.9-0.4-1.4-1.3-1.3-2.3c0-0.3,0-0.7,0.1-1c0.2-0.8,0.6-1.6,1.1-2.2c1-1.2,2.5-1.8,4-1.7c0.6,0,1.3,0.1,1.9,0.2L235.1,152.1z
				 M235.4,145.7c-0.3-0.1-0.6-0.1-0.9-0.1c-0.9,0-1.8,0.4-2.5,1.1c-0.8,0.9-1.2,1.9-1.2,3.1c0,0.5,0.2,1,0.6,1.4
				c0.2,0.2,0.5,0.3,0.8,0.3c0.2,0,0.5,0,0.7-0.1c0.4-0.2,0.8-0.5,1.1-0.8c0.2-0.2,0.3-0.4,0.4-0.5L235.4,145.7z"/>
			<path id="Path_4819_1_" class="st2" d="M240.2,146.1c0.6-0.7,1.5-1.2,2.4-1.3c0.9,0,1.7,0.5,2.1,1.4c0.1,0.3,0.2,0.7,0.2,1
				c0,0.4-0.1,0.8-0.2,1.2c-0.3,1.2-1.1,2.3-2.1,3.1c-0.4,0.3-0.9,0.5-1.4,0.6c-0.4,0.1-0.8,0.2-1.3,0.2c-0.8,0-1.5-0.2-2.2-0.5
				l2.2-9.6h1.2L240.2,146.1z M238.9,151.5c0.3,0.1,0.7,0.1,1,0.1c0.6,0,1.1-0.2,1.6-0.4c1.2-0.9,1.9-2.3,2-3.8c0-0.3,0-0.6-0.2-0.9
				c-0.2-0.5-0.7-0.8-1.2-0.8c-0.2,0-0.4,0-0.6,0.1c-0.6,0.3-1.2,0.7-1.6,1.3L238.9,151.5z"/>
			<path id="Path_4820_1_" class="st2" d="M251.1,146c-0.3-0.1-0.5-0.1-0.8-0.1c-0.3,0-0.5,0-0.7,0.1c-0.5,0.2-0.9,0.5-1.3,0.9
				l-1.2,5.2h-1.2l1.6-7.1h1.2l-0.3,1.1c0.6-0.7,1.5-1.2,2.4-1.3c0.2,0,0.3,0,0.5,0L251.1,146z"/>
			<path id="Path_4821_1_" class="st2" d="M254.1,145l-1.6,7.1h-1.2l1.6-7.1H254.1z M253.4,142.9c0-0.4,0.3-0.7,0.7-0.7
				c0.4,0,0.7,0.3,0.7,0.7c0,0,0,0,0,0c0,0.4-0.3,0.7-0.7,0.7c0,0,0,0,0,0c-0.2,0-0.4-0.1-0.5-0.2
				C253.4,143.3,253.4,143.1,253.4,142.9L253.4,142.9z"/>
			<path id="Path_4822_1_" class="st2" d="M261.3,150.4c-0.1,0.2-0.2,0.4-0.4,0.6c-0.6,0.9-1.6,1.4-2.6,1.4c-0.4,0-0.8-0.1-1.2-0.2
				c-1.1-0.4-1.8-1.5-1.7-2.7c0-0.4,0.1-0.8,0.2-1.2c0.3-1.3,1.2-2.5,2.4-3.1c0.5-0.2,1-0.4,1.5-0.4c0.7,0,1.4,0.2,1.9,0.6
				c0.2,0.2,0.4,0.4,0.5,0.6c0.1,0.2,0.2,0.4,0.2,0.6c0,0.2,0,0.3,0,0.5l-0.4,0c0-0.2-0.1-0.4-0.2-0.6c-0.4-0.6-1-0.9-1.7-0.9
				c-0.8,0-1.6,0.5-2.1,1.2c-0.6,0.8-0.9,1.8-0.9,2.8c0,0.3,0,0.6,0.1,0.9c0.3,0.7,1,1.2,1.8,1.1c0.3,0,0.6-0.1,0.8-0.2
				c0.6-0.3,1.2-0.7,1.6-1.2L261.3,150.4z"/>
			<path id="Path_4823_1_" class="st2" d="M273.6,147.8c0,0.3,0,0.6-0.1,0.9c-0.2,1.5-1.1,2.7-2.4,3.4c-0.6,0.3-1.2,0.4-1.9,0.3
				c-0.4,0-0.9-0.1-1.3-0.2c-1.2-0.4-1.9-1.6-1.8-2.9c0-0.9,0.2-1.8,0.7-2.6c0.4-0.8,1.2-1.4,2-1.7c0.5-0.2,1-0.2,1.6-0.2
				c1.6-0.2,3,1,3.1,2.5C273.6,147.4,273.6,147.6,273.6,147.8z M268.9,145.9c-1,1-1.5,2.3-1.5,3.7c-0.2,1,0.6,2,1.6,2.2
				c0.1,0,0.3,0,0.4,0c0.7,0,1.4-0.3,1.9-1c0.6-0.9,1-2,1-3.2c0-0.4,0-0.7-0.2-1c-0.2-0.8-1-1.3-1.7-1.2
				C269.8,145.4,269.3,145.6,268.9,145.9L268.9,145.9z"/>
			<path id="Path_4824_1_" class="st2" d="M279.9,142.7c-0.6-0.1-1.1,0.1-1.6,0.5c-0.5,0.5-0.8,1.2-0.9,1.9h1.4l-0.2,0.7h-1.4
				l-1.5,6.4h-1.2l1.5-6.4h-1l0.2-0.7h1c0.1-0.6,0.3-1.2,0.5-1.7c0.4-0.8,1.3-1.2,2.2-1.2c0.3,0,0.7,0.1,1,0.2L279.9,142.7z"/>
			<path id="Path_4825_1_" class="st2" d="M286.3,142.3l-2.1,9h5.2l-0.2,0.8h-6.5l2.3-9.8H286.3z"/>
			<path id="Path_4826_1_" class="st2" d="M293.5,145l-1.6,7.1h-1.2l1.6-7.1H293.5z M292.8,142.9c0-0.4,0.3-0.7,0.7-0.7
				c0.4,0,0.7,0.3,0.7,0.7c0,0,0,0,0,0c0,0.4-0.3,0.7-0.7,0.7c-0.2,0-0.4-0.1-0.5-0.2C292.9,143.3,292.8,143.1,292.8,142.9
				L292.8,142.9z"/>
			<path id="Path_4827_1_" class="st2" d="M300.4,142.7c-0.6-0.1-1.1,0.1-1.6,0.5c-0.5,0.5-0.8,1.2-0.9,1.9h1.4l-0.2,0.7h-1.4
				l-1.5,6.4h-1.2l1.5-6.4h-1l0.2-0.7h1c0.1-0.6,0.3-1.2,0.5-1.7c0.4-0.8,1.3-1.2,2.2-1.2c0.3,0,0.7,0.1,1,0.2L300.4,142.7z"/>
			<path id="Path_4828_1_" class="st2" d="M300.9,148.6c0,0.3,0,0.5,0,0.8c0,0.3,0,0.7,0.1,1c0.3,0.7,1,1.2,1.8,1.2
				c1.1-0.1,2.1-0.7,2.7-1.6l0.3,0.2c-0.2,0.5-0.5,0.9-0.9,1.3c-0.6,0.6-1.5,0.9-2.4,0.9c-0.5,0-1.1-0.1-1.5-0.3
				c-0.9-0.6-1.5-1.6-1.4-2.7c0-1,0.3-1.9,0.8-2.8c0.7-1.1,1.9-1.8,3.2-1.8c1.4-0.1,2.6,0.9,2.7,2.2c0,0.2,0,0.3,0,0.5
				c0,0.4,0,0.8-0.1,1.2H300.9z M305,147.8c0-0.2,0-0.4,0-0.6c0-0.6-0.2-1.1-0.7-1.5c-0.3-0.2-0.6-0.2-0.9-0.2
				c-0.3,0-0.7,0.1-0.9,0.2c-0.8,0.5-1.3,1.3-1.5,2.1L305,147.8z"/>
		</g>
	</g>
</g>
</svg>
